<?xml version="1.0" encoding="UTF-8"?>
<svg version="1.1" xmlns="http://www.w3.org/2000/svg" width="409" height="372">
<path d="M0 0 C0.67252808 -0.00525696 1.34505615 -0.01051392 2.03796387 -0.01593018 C4.23909418 -0.02902691 6.43948861 -0.02042963 8.640625 -0.01025391 C10.18326963 -0.01227763 11.72591332 -0.01519155 13.26855469 -0.01895142 C16.4929317 -0.02336076 19.71705845 -0.01698882 22.94140625 -0.00292969 C27.06040369 0.01416159 31.17881457 0.0043129 35.29779053 -0.01364708 C38.48067592 -0.0245227 41.66342379 -0.02102134 44.84631348 -0.0132637 C46.36446198 -0.01127212 47.88262325 -0.01368412 49.40075684 -0.02070236 C51.52792106 -0.02837965 53.65415454 -0.01662689 55.78125 0 C57.59157715 0.00358017 57.59157715 0.00358017 59.43847656 0.00723267 C63.54781121 0.4607053 66.21530053 1.51831188 69.890625 3.38818359 C71.03320312 5.23144531 71.03320312 5.23144531 71.421875 7.31787109 C71.58856689 8.10258789 71.75525879 8.88730469 71.92700195 9.69580078 C72.07999756 10.54303711 72.23299316 11.39027344 72.390625 12.26318359 C72.78347235 14.07979193 73.18345686 15.89486863 73.58984375 17.70849609 C73.79657715 18.6459668 74.00331055 19.5834375 74.21630859 20.54931641 C77.56602596 34.65160226 83.07894372 47.65768412 89.890625 60.38818359 C90.79284471 62.19751309 91.68958064 64.0095992 92.578125 65.82568359 C96.30452478 73.24134295 100.29743624 80.18104082 105.14453125 86.93115234 C106.39831258 88.69542182 107.61420689 90.48684672 108.8046875 92.29443359 C110.98544043 95.52880872 113.30852772 98.62430092 115.703125 101.70068359 C116.14035889 102.26537354 116.57759277 102.83006348 117.02807617 103.41186523 C117.90586004 104.54495173 118.78450297 105.67737333 119.6640625 106.80908203 C120.752867 108.21083114 121.83766361 109.61569133 122.921875 111.02099609 C126.16419611 115.21610455 129.4657533 119.34060795 132.890625 123.38818359 C137.88579166 121.18126729 140.46774959 117.533598 143.890625 113.38818359 C144.83707353 112.28778034 145.78370093 111.1875309 146.73046875 110.08740234 C165.2531237 88.19752899 173.58201497 59.96980728 171.890625 31.38818359 C171.30813075 24.74325611 170.5072774 18.16173875 168.578125 11.76318359 C167.890625 8.38818359 167.890625 8.38818359 168.890625 5.57568359 C172.11399035 2.05012774 175.46732698 0.54889883 180.20474243 0.01396179 C181.40513153 0.01459122 182.60552063 0.01522064 183.84228516 0.01586914 C184.50973251 0.01221848 185.17717987 0.00856781 185.86485291 0.00480652 C188.05339641 -0.00324683 190.2411874 0.01026373 192.4296875 0.02490234 C193.95852661 0.02542146 195.48736639 0.02490177 197.01620483 0.02339172 C200.21207715 0.0234812 203.40769593 0.03386336 206.60351562 0.05200195 C210.6969594 0.07472689 214.79003438 0.07522372 218.88352394 0.06848431 C222.03711213 0.06514163 225.19061642 0.0717794 228.34418869 0.08161354 C229.85364722 0.08545778 231.36311508 0.08661697 232.87257767 0.08502769 C234.98115055 0.08465636 237.08925196 0.09729446 239.19775391 0.11352539 C240.39655182 0.11813278 241.59534973 0.12274017 242.83047485 0.12748718 C245.78443275 0.379137 247.44797975 0.75595245 249.890625 2.38818359 C252.74911603 6.88009806 251.7922176 11.39825873 250.890625 16.38818359 C249.9821422 19.61677042 248.81295004 22.70897425 247.578125 25.82568359 C247.05351685 27.16880615 247.05351685 27.16880615 246.51831055 28.5390625 C238.50932334 48.66226709 228.89158664 67.75071277 217.890625 86.38818359 C217.35872559 87.29922852 216.82682617 88.21027344 216.27880859 89.14892578 C210.57731669 98.91144359 204.78130077 108.40865232 197.890625 117.38818359 C196.96564789 118.62772782 196.04262025 119.86872815 195.12109375 121.11083984 C186.31559105 132.96181168 177.25464135 144.59333012 167.86328125 155.98583984 C165.85091139 158.43654769 163.86669351 160.9081513 161.890625 163.38818359 C163.64949056 167.40559244 166.28130167 170.77259232 168.890625 174.26318359 C172.14695529 178.65419062 175.38013211 183.05498845 178.5246582 187.52685547 C187.6130386 200.43548112 197.49212713 212.7504602 207.47875977 224.97045898 C210.24060575 228.35031656 212.9746682 231.74413271 215.640625 235.20068359 C221.99988402 243.44128819 228.7123157 251.37545525 235.50952148 259.25488281 C239.11586888 263.44814896 242.59318219 267.72501762 246.00390625 272.07958984 C248.01282562 274.53770857 250.15410802 276.82564518 252.328125 279.13818359 C254.586145 281.67678596 255.86709042 283.32934715 257.140625 286.51318359 C256.77265468 290.74484229 255.36403428 292.91204082 252.890625 296.38818359 C249.33517048 298.88202969 245.87496232 298.64789754 241.63110352 298.6628418 C240.90703308 298.66795273 240.18296265 298.67306366 239.43695068 298.67832947 C237.04772637 298.692209 234.65879105 298.69126998 232.26953125 298.68896484 C230.60570672 298.69285265 228.94188317 298.6971875 227.27806091 298.70195007 C223.79203066 298.70940873 220.30610168 298.70912357 216.82006836 298.70385742 C212.35668116 298.69806293 207.89370895 298.71499482 203.43039036 298.7382021 C199.9945382 298.75294642 196.55878583 298.7538102 193.12290764 298.75069237 C191.47749955 298.75120522 189.83208582 298.75643621 188.18670845 298.76650429 C185.88404635 298.77886533 183.58219058 298.77207967 181.27954102 298.76049805 C179.31574242 298.76144218 179.31574242 298.76144218 177.31227112 298.7624054 C173.65486604 298.36239889 171.76722198 297.64742056 168.890625 295.38818359 C167.68383789 292.45581055 167.68383789 292.45581055 166.86328125 288.87646484 C166.70919296 288.23574539 166.55510468 287.59502594 166.39634705 286.93489075 C166.06873464 285.56769351 165.74958966 284.19844407 165.43823242 282.82745361 C164.62619045 279.26736272 163.74284246 275.72505682 162.86328125 272.18115234 C162.69317535 271.49053711 162.52306946 270.79992187 162.34780884 270.08837891 C160.46968956 262.54357732 158.00376239 255.51066459 154.890625 248.38818359 C154.60251953 247.71754883 154.31441406 247.04691406 154.01757812 246.35595703 C144.35811431 224.06567213 129.8973139 204.36215807 114.890625 185.38818359 C114.09527344 184.37498047 113.29992187 183.36177734 112.48046875 182.31787109 C108.60117664 177.46066061 104.88826964 173.10438089 99.890625 169.38818359 C76.71900123 190.67678602 59.21222652 220.77943993 56.98046875 252.67724609 C56.62040746 263.54170403 56.69986267 273.69022739 58.890625 284.38818359 C59.94682503 289.54681909 59.86073946 291.88180304 56.890625 296.38818359 C53.4564811 298.72117435 50.35013586 298.64697943 46.27368164 298.6628418 C45.28998848 298.67050819 45.28998848 298.67050819 44.28642273 298.67832947 C42.1244487 298.6921986 39.96279441 298.69127079 37.80078125 298.68896484 C36.29389834 298.69285325 34.78701651 298.69718822 33.28013611 298.70195007 C30.12365158 298.7094065 26.96727892 298.70912522 23.81079102 298.70385742 C19.771126 298.69806338 15.73191957 298.71499461 11.69233036 298.7382021 C8.58073766 298.75295294 5.46925506 298.75380932 2.35763359 298.75069237 C0.86852548 298.7512049 -0.62058889 298.75642988 -2.10966301 298.76650429 C-4.19442187 298.77887819 -6.27829186 298.77207243 -8.36303711 298.76049805 C-9.54788193 298.76112747 -10.73272675 298.7617569 -11.95347595 298.7624054 C-15.43425662 298.34965962 -17.30567924 297.45046828 -20.109375 295.38818359 C-22.17198409 292.56635067 -22.86346325 289.85965867 -23.109375 286.38818359 C-22.0503658 281.75520558 -20.19073633 277.58207436 -18.234375 273.26318359 C-17.71423828 272.05831299 -17.19410156 270.85344238 -16.65820312 269.61206055 C-15.17130057 266.19010669 -13.64744861 262.78737949 -12.109375 259.38818359 C-11.47100777 257.94693072 -10.83291818 256.50555479 -10.1953125 255.06396484 C-8.56261599 251.47283681 -6.85134317 247.92690974 -5.109375 244.38818359 C-4.72346191 243.59202637 -4.33754883 242.79586914 -3.93994141 241.97558594 C7.67769462 218.02667811 20.72768548 195.54641881 36.890625 174.38818359 C38.30758732 172.47173549 39.72424851 170.55506471 41.140625 168.63818359 C47.66789194 159.93135724 54.61932129 151.55876469 61.546875 143.16943359 C65.51670498 138.35270655 69.34889634 133.52940262 72.890625 128.38818359 C72.01664063 127.27636719 72.01664063 127.27636719 71.125 126.14208984 C66.27037859 119.92125794 61.5921611 113.61078908 57.078125 107.13818359 C51.40803176 99.02218578 45.45231805 91.15363239 39.38964844 83.328125 C38.02013323 81.55578496 36.65996775 79.77688799 35.3046875 77.99365234 C28.68424792 69.30566448 21.8043488 60.84319618 14.890625 52.38818359 C7.62832217 43.49552456 0.40156127 34.58119967 -6.65625 25.52490234 C-8.19436687 23.5581701 -9.74466021 21.60083544 -11.3125 19.65771484 C-11.94671875 18.86751953 -12.5809375 18.07732422 -13.234375 17.26318359 C-13.77320313 16.60060547 -14.31203125 15.93802734 -14.8671875 15.25537109 C-16.20742777 13.2407961 -16.79276563 11.78194233 -17.109375 9.38818359 C-15.76614403 5.27453875 -14.80292107 3.75000218 -10.92871094 1.72885132 C-7.24697699 0.26947746 -3.97542262 0.00786194 0 0 Z " fill="#D60041" transform="translate(65.109375,22.61181640625)"/>
<path d="M0 0 C5.28172343 4.15795249 9.36528038 8.70580322 13.55859375 13.94921875 C20.78194719 22.97552121 28.39401189 31.606255 36.27734375 40.05859375 C38.50769146 42.45443617 40.67614367 44.89453258 42.8125 47.375 C45.48863982 50.47232405 48.32349233 53.3471804 51.24609375 56.2109375 C53.11093223 58.11315582 54.83505395 60.09762375 56.5625 62.125 C59.47630938 65.50814781 62.52492501 68.20483099 66 71 C67.66666667 72.66666667 69.33333333 74.33333333 71 76 C72.28691974 77.10969563 73.57901502 78.21340504 74.875 79.3125 C78.41240147 82.36359204 81.40337383 85.67147745 84.41796875 89.23046875 C86.04672941 91.15066257 86.04672941 91.15066257 88.5 93 C91.47062417 95.37649934 93.75945875 98.07800415 96.21875 100.96875 C97.88450706 102.86829752 99.61794664 104.62410903 101.4375 106.375 C104 109 104 109 104 111 C105.485 111.495 105.485 111.495 107 112 C107 112.66 107 113.32 107 114 C108.485 114.495 108.485 114.495 110 115 C110 115.66 110 116.32 110 117 C111.485 117.495 111.485 117.495 113 118 C116.90642903 121.79989006 120.55566375 126.11132749 123 131 C123 131.66 123 132.32 123 133 C123.73605469 132.37351563 124.47210938 131.74703125 125.23046875 131.1015625 C126.20628906 130.28429687 127.18210938 129.46703125 128.1875 128.625 C129.15042969 127.81289062 130.11335937 127.00078125 131.10546875 126.1640625 C133.73115596 124.20099811 135.91175041 123.0275346 139 122 C131.94975689 130.36628849 131.94975689 130.36628849 129 133 C128.34 133 127.68 133 127 133 C127 133.66 127 134.32 127 135 C125.28048026 136.53851766 123.49812503 138.00731759 121.6875 139.4375 C117.86290303 142.41969267 117.86290303 142.41969267 114.34765625 145.7421875 C113 147 113 147 109.75 147.6875 C105.33154558 149.23395905 103.91518842 150.8753151 101.0546875 154.44140625 C99.09918426 156.87649108 97.03462254 159.18121335 94.94116211 161.49731445 C72.00629905 187.27715809 59.83548968 216.96949846 59.8125 251.5 C59.80025391 252.46808594 59.78800781 253.43617188 59.77539062 254.43359375 C59.7610221 261.56996252 60.5080262 268.33791148 62.69067383 275.15820312 C62.84379028 276.06989258 62.84379028 276.06989258 63 277 C60.2054098 279.7945902 58.47741514 279.25959603 54.5625 279.2746582 C53.5720166 279.2823246 53.5720166 279.2823246 52.56152344 279.29014587 C50.37425731 279.30407003 48.18730523 279.30308324 46 279.30078125 C44.48307172 279.3046663 42.96614452 279.30900057 41.44921875 279.31376648 C38.26819331 279.3212345 35.08727884 279.320933 31.90625 279.31567383 C27.82363587 279.30987466 23.74147474 279.32681775 19.65893555 279.3500185 C16.52601451 279.36472714 13.39320335 279.36563156 10.26025391 279.36250877 C8.75471091 279.36302332 7.24916198 279.36828588 5.74365234 279.37832069 C3.6412991 279.39061457 1.53983823 279.38393746 -0.5625 279.37231445 C-1.76003906 279.37294388 -2.95757812 279.3735733 -4.19140625 279.3742218 C-5.11824219 279.25072861 -6.04507813 279.12723541 -7 279 C-9 276 -9 276 -8.8125 272.79296875 C-7.94569146 268.74647312 -6.63063792 265.09550776 -5 261.3125 C-4.69022217 260.58047363 -4.38044434 259.84844727 -4.0612793 259.09423828 C-3.05176532 256.72463955 -2.02711087 254.36201888 -1 252 C-0.66436035 251.21898926 -0.3287207 250.43797852 0.01708984 249.63330078 C14.74059317 215.48402343 33.54983796 184.54780777 56 155 C56.79148437 153.95070312 57.58296875 152.90140625 58.3984375 151.8203125 C62.62945408 146.23940015 66.96482657 140.77482924 71.5 135.4375 C71.95133301 134.90455322 72.40266602 134.37160645 72.86767578 133.82250977 C75.19737405 131.08205547 77.55502603 128.37224014 79.953125 125.69140625 C80.42298828 125.15523682 80.89285156 124.61906738 81.37695312 124.06665039 C82.67334108 122.58746805 83.98466623 121.12141562 85.296875 119.65625 C87.23016832 117.16196485 87.23016832 117.16196485 87.015625 114.40625 C85.79176205 111.50663623 84.2830325 110.16927315 82 108 C80.11641727 105.54383813 78.38052378 102.98618914 76.625 100.4375 C66.06502577 85.30808575 55.02040336 70.57222517 43.62109375 56.06640625 C42.09554041 54.12178524 40.57763232 52.17149546 39.0625 50.21875 C33.98700841 43.69400652 28.80518897 37.29887781 23.35083008 31.0847168 C20 27.21402568 20 27.21402568 20 25 C19.34 25 18.68 25 18 25 C16.76844632 23.46659493 15.61615395 21.86933811 14.5 20.25 C10.58595983 14.70271144 6.34170963 9.57044383 1.90625 4.43359375 C0 2 0 2 0 0 Z " fill="#D4001B" transform="translate(57,36)"/>
<path d="M0 0 C0.67252808 -0.00525696 1.34505615 -0.01051392 2.03796387 -0.01593018 C4.23909418 -0.02902691 6.43948861 -0.02042963 8.640625 -0.01025391 C10.18326963 -0.01227763 11.72591332 -0.01519155 13.26855469 -0.01895142 C16.4929317 -0.02336076 19.71705845 -0.01698882 22.94140625 -0.00292969 C27.06040369 0.01416159 31.17881457 0.0043129 35.29779053 -0.01364708 C38.48067592 -0.0245227 41.66342379 -0.02102134 44.84631348 -0.0132637 C46.36446198 -0.01127212 47.88262325 -0.01368412 49.40075684 -0.02070236 C51.52792106 -0.02837965 53.65415454 -0.01662689 55.78125 0 C57.59157715 0.00358017 57.59157715 0.00358017 59.43847656 0.00723267 C63.54781121 0.4607053 66.21530053 1.51831188 69.890625 3.38818359 C71.03320312 5.23144531 71.03320312 5.23144531 71.421875 7.31787109 C71.58856689 8.10258789 71.75525879 8.88730469 71.92700195 9.69580078 C72.07999756 10.54303711 72.23299316 11.39027344 72.390625 12.26318359 C72.78347235 14.07979193 73.18345686 15.89486863 73.58984375 17.70849609 C73.79657715 18.6459668 74.00331055 19.5834375 74.21630859 20.54931641 C77.56602596 34.65160226 83.07894372 47.65768412 89.890625 60.38818359 C90.79284471 62.19751309 91.68958064 64.0095992 92.578125 65.82568359 C96.30452478 73.24134295 100.29743624 80.18104082 105.14453125 86.93115234 C106.39831258 88.69542182 107.61420689 90.48684672 108.8046875 92.29443359 C110.98544043 95.52880872 113.30852772 98.62430092 115.703125 101.70068359 C116.14035889 102.26537354 116.57759277 102.83006348 117.02807617 103.41186523 C117.90586004 104.54495173 118.78450297 105.67737333 119.6640625 106.80908203 C120.752867 108.21083114 121.83766361 109.61569133 122.921875 111.02099609 C126.16419611 115.21610455 129.4657533 119.34060795 132.890625 123.38818359 C137.88579166 121.18126729 140.46774959 117.533598 143.890625 113.38818359 C144.83707353 112.28778034 145.78370093 111.1875309 146.73046875 110.08740234 C165.2531237 88.19752899 173.58201497 59.96980728 171.890625 31.38818359 C171.30813075 24.74325611 170.5072774 18.16173875 168.578125 11.76318359 C167.890625 8.38818359 167.890625 8.38818359 168.890625 5.57568359 C172.11399035 2.05012774 175.46732698 0.54889883 180.20474243 0.01396179 C181.40513153 0.01459122 182.60552063 0.01522064 183.84228516 0.01586914 C184.50973251 0.01221848 185.17717987 0.00856781 185.86485291 0.00480652 C188.05339641 -0.00324683 190.2411874 0.01026373 192.4296875 0.02490234 C193.95852661 0.02542146 195.48736639 0.02490177 197.01620483 0.02339172 C200.21207715 0.0234812 203.40769593 0.03386336 206.60351562 0.05200195 C210.6969594 0.07472689 214.79003438 0.07522372 218.88352394 0.06848431 C222.03711213 0.06514163 225.19061642 0.0717794 228.34418869 0.08161354 C229.85364722 0.08545778 231.36311508 0.08661697 232.87257767 0.08502769 C234.98115055 0.08465636 237.08925196 0.09729446 239.19775391 0.11352539 C240.39655182 0.11813278 241.59534973 0.12274017 242.83047485 0.12748718 C245.78443275 0.379137 247.44797975 0.75595245 249.890625 2.38818359 C252.74911603 6.88009806 251.7922176 11.39825873 250.890625 16.38818359 C249.9821422 19.61677042 248.81295004 22.70897425 247.578125 25.82568359 C247.05351685 27.16880615 247.05351685 27.16880615 246.51831055 28.5390625 C238.50932334 48.66226709 228.89158664 67.75071277 217.890625 86.38818359 C217.35872559 87.29922852 216.82682617 88.21027344 216.27880859 89.14892578 C210.57731669 98.91144359 204.78130077 108.40865232 197.890625 117.38818359 C196.96564789 118.62772782 196.04262025 119.86872815 195.12109375 121.11083984 C186.31559105 132.96181168 177.25464135 144.59333012 167.86328125 155.98583984 C165.85091139 158.43654769 163.86669351 160.9081513 161.890625 163.38818359 C163.64949056 167.40559244 166.28130167 170.77259232 168.890625 174.26318359 C172.14695529 178.65419062 175.38013211 183.05498845 178.5246582 187.52685547 C187.6130386 200.43548112 197.49212713 212.7504602 207.47875977 224.97045898 C210.24060575 228.35031656 212.9746682 231.74413271 215.640625 235.20068359 C221.99988402 243.44128819 228.7123157 251.37545525 235.50952148 259.25488281 C239.11586888 263.44814896 242.59318219 267.72501762 246.00390625 272.07958984 C248.01282562 274.53770857 250.15410802 276.82564518 252.328125 279.13818359 C254.586145 281.67678596 255.86709042 283.32934715 257.140625 286.51318359 C256.77265468 290.74484229 255.36403428 292.91204082 252.890625 296.38818359 C249.33517048 298.88202969 245.87496232 298.64789754 241.63110352 298.6628418 C240.90703308 298.66795273 240.18296265 298.67306366 239.43695068 298.67832947 C237.04772637 298.692209 234.65879105 298.69126998 232.26953125 298.68896484 C230.60570672 298.69285265 228.94188317 298.6971875 227.27806091 298.70195007 C223.79203066 298.70940873 220.30610168 298.70912357 216.82006836 298.70385742 C212.35668116 298.69806293 207.89370895 298.71499482 203.43039036 298.7382021 C199.9945382 298.75294642 196.55878583 298.7538102 193.12290764 298.75069237 C191.47749955 298.75120522 189.83208582 298.75643621 188.18670845 298.76650429 C185.88404635 298.77886533 183.58219058 298.77207967 181.27954102 298.76049805 C179.31574242 298.76144218 179.31574242 298.76144218 177.31227112 298.7624054 C173.65486604 298.36239889 171.76722198 297.64742056 168.890625 295.38818359 C167.68383789 292.45581055 167.68383789 292.45581055 166.86328125 288.87646484 C166.70919296 288.23574539 166.55510468 287.59502594 166.39634705 286.93489075 C166.06873464 285.56769351 165.74958966 284.19844407 165.43823242 282.82745361 C164.62619045 279.26736272 163.74284246 275.72505682 162.86328125 272.18115234 C162.69317535 271.49053711 162.52306946 270.79992187 162.34780884 270.08837891 C160.46968956 262.54357732 158.00376239 255.51066459 154.890625 248.38818359 C154.60251953 247.71754883 154.31441406 247.04691406 154.01757812 246.35595703 C144.35811431 224.06567213 129.8973139 204.36215807 114.890625 185.38818359 C114.09527344 184.37498047 113.29992187 183.36177734 112.48046875 182.31787109 C108.60117664 177.46066061 104.88826964 173.10438089 99.890625 169.38818359 C76.71900123 190.67678602 59.21222652 220.77943993 56.98046875 252.67724609 C56.62040746 263.54170403 56.69986267 273.69022739 58.890625 284.38818359 C59.94682503 289.54681909 59.86073946 291.88180304 56.890625 296.38818359 C53.4564811 298.72117435 50.35013586 298.64697943 46.27368164 298.6628418 C45.28998848 298.67050819 45.28998848 298.67050819 44.28642273 298.67832947 C42.1244487 298.6921986 39.96279441 298.69127079 37.80078125 298.68896484 C36.29389834 298.69285325 34.78701651 298.69718822 33.28013611 298.70195007 C30.12365158 298.7094065 26.96727892 298.70912522 23.81079102 298.70385742 C19.771126 298.69806338 15.73191957 298.71499461 11.69233036 298.7382021 C8.58073766 298.75295294 5.46925506 298.75380932 2.35763359 298.75069237 C0.86852548 298.7512049 -0.62058889 298.75642988 -2.10966301 298.76650429 C-4.19442187 298.77887819 -6.27829186 298.77207243 -8.36303711 298.76049805 C-9.54788193 298.76112747 -10.73272675 298.7617569 -11.95347595 298.7624054 C-15.43425662 298.34965962 -17.30567924 297.45046828 -20.109375 295.38818359 C-22.17198409 292.56635067 -22.86346325 289.85965867 -23.109375 286.38818359 C-22.0503658 281.75520558 -20.19073633 277.58207436 -18.234375 273.26318359 C-17.71423828 272.05831299 -17.19410156 270.85344238 -16.65820312 269.61206055 C-15.17130057 266.19010669 -13.64744861 262.78737949 -12.109375 259.38818359 C-11.47100777 257.94693072 -10.83291818 256.50555479 -10.1953125 255.06396484 C-8.56261599 251.47283681 -6.85134317 247.92690974 -5.109375 244.38818359 C-4.72346191 243.59202637 -4.33754883 242.79586914 -3.93994141 241.97558594 C7.67769462 218.02667811 20.72768548 195.54641881 36.890625 174.38818359 C38.30758732 172.47173549 39.72424851 170.55506471 41.140625 168.63818359 C47.66789194 159.93135724 54.61932129 151.55876469 61.546875 143.16943359 C65.51670498 138.35270655 69.34889634 133.52940262 72.890625 128.38818359 C72.01664063 127.27636719 72.01664063 127.27636719 71.125 126.14208984 C66.27037859 119.92125794 61.5921611 113.61078908 57.078125 107.13818359 C51.40803176 99.02218578 45.45231805 91.15363239 39.38964844 83.328125 C38.02013323 81.55578496 36.65996775 79.77688799 35.3046875 77.99365234 C28.68424792 69.30566448 21.8043488 60.84319618 14.890625 52.38818359 C7.62832217 43.49552456 0.40156127 34.58119967 -6.65625 25.52490234 C-8.19436687 23.5581701 -9.74466021 21.60083544 -11.3125 19.65771484 C-11.94671875 18.86751953 -12.5809375 18.07732422 -13.234375 17.26318359 C-13.77320313 16.60060547 -14.31203125 15.93802734 -14.8671875 15.25537109 C-16.20742777 13.2407961 -16.79276563 11.78194233 -17.109375 9.38818359 C-15.76614403 5.27453875 -14.80292107 3.75000218 -10.92871094 1.72885132 C-7.24697699 0.26947746 -3.97542262 0.00786194 0 0 Z M173.890625 6.38818359 C174.1904013 10.165365 174.54066956 13.8209139 175.3671875 17.52246094 C181.53405939 45.32329617 175.07114432 76.24994063 160.515625 100.45068359 C153.1336023 111.11360526 144.03945409 121.23935451 134.890625 130.38818359 C128.2052159 129.71015022 123.65452491 122.21135558 119.640625 117.45068359 C113.64329098 110.02639768 107.16478296 101.93649951 102.890625 93.38818359 C102.230625 93.38818359 101.570625 93.38818359 100.890625 93.38818359 C100.519375 92.36724609 100.519375 92.36724609 100.140625 91.32568359 C98.64864592 87.81953276 96.82226989 84.67197991 94.890625 81.38818359 C94.230625 81.38818359 93.570625 81.38818359 92.890625 81.38818359 C92.55224609 80.44458984 92.55224609 80.44458984 92.20703125 79.48193359 C89.98185767 74.25244554 87.15717489 69.32260035 84.43554688 64.33740234 C83.99662109 63.51884766 83.55769531 62.70029297 83.10546875 61.85693359 C82.70448975 61.11894531 82.30351074 60.38095703 81.89038086 59.62060547 C80.81515058 57.2196517 80.31226806 54.97782932 79.890625 52.38818359 C79.230625 52.38818359 78.570625 52.38818359 77.890625 52.38818359 C74.98631121 43.84950105 74.98631121 43.84950105 73.890625 39.51318359 C73.21099568 36.44395343 73.21099568 36.44395343 71.45703125 35.16552734 C69.07562352 32.46343129 68.60213901 29.25413829 67.828125 25.82568359 C67.65893555 25.11347656 67.48974609 24.40126953 67.31542969 23.66748047 C66.04700812 18.26630194 64.90582503 12.84260954 63.890625 7.38818359 C60.72397834 7.35877902 57.55736753 7.34125045 54.390625 7.32568359 C53.0603125 7.31311523 53.0603125 7.31311523 51.703125 7.30029297 C47.65186315 7.28539862 43.70186339 7.33988857 39.68359375 7.88427734 C35.97603377 8.37683681 32.44028744 8.52147918 28.703125 8.51318359 C27.53394531 8.51576172 26.36476562 8.51833984 25.16015625 8.52099609 C21.890625 8.38818359 21.890625 8.38818359 19.27734375 7.81787109 C16.50539549 7.31882967 14.62468241 7.78296655 11.890625 8.38818359 C10.0989327 8.40668189 8.30644083 8.38469328 6.515625 8.32568359 C1.86714315 8.2690715 -1.74353231 8.83588397 -6.109375 10.38818359 C-6.109375 11.04818359 -6.109375 11.70818359 -6.109375 12.38818359 C-7.099375 12.38818359 -8.089375 12.38818359 -9.109375 12.38818359 C-7.72584285 15.41058508 -6.09907822 17.78559126 -3.95703125 20.32177734 C-3.03954102 21.4190918 -3.03954102 21.4190918 -2.10351562 22.53857422 C-1.14735352 23.67069336 -1.14735352 23.67069336 -0.171875 24.82568359 C6.49460253 32.72644283 6.49460253 32.72644283 8.70703125 36.42333984 C9.29291016 37.3959375 9.29291016 37.3959375 9.890625 38.38818359 C10.550625 38.38818359 11.210625 38.38818359 11.890625 38.38818359 C12.14199219 38.95021484 12.39335938 39.51224609 12.65234375 40.09130859 C14.07895599 42.73751679 15.77264368 44.83163448 17.703125 47.13818359 C18.5075 48.10884766 19.311875 49.07951172 20.140625 50.07958984 C20.58148438 50.60955566 21.02234375 51.13952148 21.4765625 51.68554688 C30.61131993 62.68447614 39.4016637 73.88437716 47.890625 85.38818359 C49.02594876 86.92080451 50.16136835 88.45335443 51.296875 89.98583984 C57.8046586 98.7830478 64.25564384 107.61923834 70.62866211 116.51464844 C71.13018799 117.21283691 71.63171387 117.91102539 72.1484375 118.63037109 C72.84888184 119.61021973 72.84888184 119.61021973 73.56347656 120.60986328 C74.7377103 122.18328465 76.02246661 123.67287841 77.3203125 125.14599609 C78.890625 127.38818359 78.890625 127.38818359 78.64135742 129.33447266 C77.37538586 132.79767681 74.75352827 135.30289168 72.328125 138.01318359 C71.2227592 139.27515511 70.11859449 140.53817966 69.015625 141.80224609 C68.47679687 142.41745117 67.93796875 143.03265625 67.3828125 143.66650391 C64.08767928 147.46841482 60.99664676 151.43184409 57.890625 155.38818359 C57.01851578 156.48997302 56.14609984 157.59151971 55.2734375 158.69287109 C26.34473409 195.26235501 3.65988264 234.30009879 -14.26049805 277.35986328 C-14.94602533 278.99787325 -15.65835321 280.62465144 -16.37890625 282.24755859 C-17.47829113 285.46928541 -16.80148309 288.11639987 -16.109375 291.38818359 C-14.26336188 293.23419672 -11.25632009 292.52559682 -8.78540039 292.53344727 C-8.12522415 292.53680588 -7.46504791 292.54016449 -6.78486633 292.54362488 C-4.59223575 292.55316054 -2.39968131 292.5550793 -0.20703125 292.55615234 C1.3113254 292.55936315 2.82968173 292.56272708 4.34803772 292.5662384 C7.53501096 292.57223625 10.72195706 292.57407764 13.90893555 292.57348633 C17.999321 292.57338468 22.08953297 292.58703702 26.17987728 292.60425854 C29.31707056 292.61535931 32.45422166 292.61740613 35.59143257 292.6168766 C37.0997636 292.61805962 38.60809561 292.62249934 40.11640739 292.63020897 C42.22348159 292.63997021 44.33017598 292.63714641 46.43725586 292.63110352 C47.63781113 292.63252853 48.83836639 292.63395355 50.07530212 292.63542175 C53.02715627 292.68001008 53.02715627 292.68001008 54.890625 290.38818359 C54.72612613 288.32416846 54.72612613 288.32416846 54.078125 286.07568359 C53.79001953 284.93679688 53.79001953 284.93679688 53.49609375 283.77490234 C53.29628906 282.98728516 53.09648438 282.19966797 52.890625 281.38818359 C49.90833229 268.18325422 51.17119534 252.56335145 53.890625 239.38818359 C54.25800781 237.55707031 54.25800781 237.55707031 54.6328125 235.68896484 C58.52454827 217.74637088 65.66374869 201.89111275 76.890625 187.38818359 C77.65503906 186.39431641 78.41945313 185.40044922 79.20703125 184.37646484 C83.64404038 178.81234427 88.39834873 173.54925949 93.26171875 168.35791016 C95.36333486 166.10814233 97.17659201 163.95923307 98.890625 161.38818359 C102.24945568 161.95882364 103.66662199 162.84197307 105.828125 165.45068359 C106.42367187 166.16353516 107.01921875 166.87638672 107.6328125 167.61083984 C108.37789063 168.52736328 109.12296875 169.44388672 109.890625 170.38818359 C110.93466858 171.65790174 111.97895966 172.9274164 113.0234375 174.19677734 C120.49311738 183.3135681 127.69695326 192.51378229 134.328125 202.26318359 C137.46570038 206.86442722 140.63243609 211.43349175 143.890625 215.95068359 C146.48755617 219.63122633 148.33043727 223.16649915 149.890625 227.38818359 C150.550625 227.38818359 151.210625 227.38818359 151.890625 227.38818359 C151.99890625 228.09845703 152.1071875 228.80873047 152.21875 229.54052734 C152.95957114 232.68040298 154.13576271 235.09997797 155.640625 237.95068359 C161.01696244 248.4847036 164.8404239 258.96643489 167.890625 270.38818359 C168.15746094 271.34853516 168.42429688 272.30888672 168.69921875 273.29833984 C170.5518187 279.96961945 172.210288 286.66683558 173.890625 293.38818359 C198.640625 293.38818359 223.390625 293.38818359 248.890625 293.38818359 C249.220625 292.39818359 249.550625 291.40818359 249.890625 290.38818359 C250.550625 290.05818359 251.210625 289.72818359 251.890625 289.38818359 C252.23311306 286.22971395 252.23311306 286.22971395 249.7421875 284.10302734 C248.80117188 283.20712891 247.86015625 282.31123047 246.890625 281.38818359 C244.96679548 279.28412453 243.11636422 277.11910298 241.265625 274.95068359 C240.74637451 274.34450195 240.22712402 273.73832031 239.69213867 273.11376953 C235.6014603 268.30295809 231.69933292 263.36286033 227.83447266 258.37011719 C224.39078497 253.94965628 220.71817314 249.7953783 216.9296875 245.66552734 C214.41230953 242.85397302 212.11120383 239.91945097 209.82421875 236.91943359 C207.44118008 233.79981934 205.00932581 230.72030663 202.578125 227.63818359 C198.64117367 222.63616007 194.73606169 217.61134951 190.86743164 212.55615234 C188.45709404 209.4105609 186.02611452 206.28277427 183.57421875 203.16943359 C176.62792594 194.3345573 169.92760079 185.38581963 163.51171875 176.15771484 C163.07714355 175.53461426 162.64256836 174.91151367 162.19482422 174.26953125 C161.29231378 172.96763206 160.39866251 171.65956326 159.51220703 170.34667969 C158.35383397 168.65927252 157.12778975 167.01870329 155.890625 165.38818359 C155.230625 165.38818359 154.570625 165.38818359 153.890625 165.38818359 C157.52182634 160.82449853 161.1626138 156.27003693 164.859375 151.75927734 C192.58115937 117.91032916 216.62962284 82.19764734 234.96777344 42.37792969 C235.82623622 40.52701125 236.70527634 38.68567493 237.5859375 36.84521484 C240.57594325 30.55718768 243.06510701 24.30673105 245.12890625 17.65380859 C245.890625 15.38818359 245.890625 15.38818359 246.890625 14.38818359 C247.05116315 12.51496412 247.05116315 12.51496412 247.015625 10.38818359 C247.01949219 9.30537109 247.01949219 9.30537109 247.0234375 8.20068359 C247.08757776 6.36728945 247.08757776 6.36728945 245.890625 5.38818359 C243.68737526 5.28858208 241.4808901 5.26018602 239.27539062 5.25878906 C238.23882576 5.25616058 238.23882576 5.25616058 237.18132019 5.253479 C234.88647993 5.24906105 232.59171611 5.25199826 230.296875 5.25537109 C228.70886215 5.25469804 227.12084941 5.253728 225.53283691 5.25247192 C222.2004295 5.25099503 218.86804884 5.25314924 215.53564453 5.2578125 C211.2546399 5.26350979 206.97369795 5.26023074 202.69269562 5.25424004 C199.41228764 5.2506342 196.13189463 5.25177311 192.85148621 5.25436783 C191.2725575 5.25503703 189.69362746 5.2542089 188.11470032 5.25188828 C185.91171647 5.24936137 183.70883551 5.25320285 181.50585938 5.25878906 C180.24978882 5.25958466 178.99371826 5.26038025 177.69958496 5.26119995 C174.98654041 5.06745083 174.98654041 5.06745083 173.890625 6.38818359 Z " fill="#E8E1E4" transform="translate(65.109375,22.61181640625)"/>
<path d="M0 0 C1.60806428 0.09352719 3.21242537 0.25208363 4.8125 0.4375 C11.96458696 1.15363875 19.17140355 1.58448395 26.30078125 0.49609375 C30.55238091 -0.07407854 34.65642503 -0.11018978 38.9375 -0.0625 C39.71673828 -0.05798828 40.49597656 -0.05347656 41.29882812 -0.04882812 C43.19925268 -0.03716908 45.09963706 -0.01923877 47 0 C47.17015625 0.93199219 47.3403125 1.86398438 47.515625 2.82421875 C49.13335767 11.33452517 50.77307346 19.92615142 54 28 C54.66 28.33 55.32 28.66 56 29 C56.96289216 31.30802334 57.81972192 33.57550702 58.625 35.9375 C58.85445313 36.58396484 59.08390625 37.23042969 59.3203125 37.89648438 C61 42.71058873 61 42.71058873 61 45 C61.66 45 62.32 45 63 45 C63.15637939 45.54019775 63.31275879 46.08039551 63.47387695 46.63696289 C65.34998577 52.7129452 67.98969966 57.95881496 71.1875 63.4375 C72.10136982 65.01738899 73.01171746 66.59932235 73.91796875 68.18359375 C74.31781982 68.86993896 74.7176709 69.55628418 75.12963867 70.26342773 C76 72 76 72 76 74 C76.66 74 77.32 74 78 74 C79.5078125 76.1171875 79.5078125 76.1171875 81.125 78.875 C81.66382813 79.77992187 82.20265625 80.68484375 82.7578125 81.6171875 C84 84 84 84 84 86 C84.66 86 85.32 86 86 86 C87.375 87.94921875 87.375 87.94921875 89 90.6875 C96.40086462 102.60518097 105.35273684 112.87203129 115 123 C118.86142204 122.21616433 121.01328244 120.57189568 124 118 C123.5 120.25 123.5 120.25 122 123 C120.36279297 123.92382813 120.36279297 123.92382813 118.3671875 124.78125 C113.79312197 126.95223665 110.34733949 129.86015707 106.625 133.25 C100.24651163 139 100.24651163 139 98 139 C96.66796875 137.2421875 96.66796875 137.2421875 95.1875 134.875 C92.10195194 130.10438321 89.13025027 125.68177653 84.625 122.125 C81.67863378 119.73984639 79.41681776 117.09288061 76.9609375 114.21875 C73.49418676 110.29621131 69.73156743 106.66832052 66 103 C64.33333333 101.33333333 62.66666667 99.66666667 61 98 C60.236875 97.278125 59.47375 96.55625 58.6875 95.8125 C57 94 57 94 57 92 C55.515 91.505 55.515 91.505 54 91 C54 90.34 54 89.68 54 89 C53.15695313 88.62875 53.15695313 88.62875 52.296875 88.25 C49.60907431 86.78725133 47.53594518 85.03195127 45.25 83 C44.45078125 82.29875 43.6515625 81.5975 42.828125 80.875 C41 79 41 79 41 77 C40.443125 76.79375 39.88625 76.5875 39.3125 76.375 C36.77187799 74.86435988 35.23492503 73.06141825 33.44140625 70.73046875 C31.44169329 68.32972934 29.22664095 66.19170079 27 64 C13.69402411 50.85768396 13.69402411 50.85768396 8.73046875 45.01171875 C6.58466726 42.51716397 4.35414323 40.10781018 2.125 37.6875 C-3.66834962 31.33322091 -9.05617001 24.6845356 -14.421875 17.96875 C-15.21078125 16.9890625 -15.9996875 16.009375 -16.8125 15 C-17.52019531 14.113125 -18.22789063 13.22625 -18.95703125 12.3125 C-20.84180455 10.17906636 -22.7132047 8.6667315 -25 7 C-25.33 6.34 -25.66 5.68 -26 5 C-25.01 5 -24.02 5 -23 5 C-23 4.34 -23 3.68 -23 3 C-16.3861777 1.20642107 -10.47449242 0.84500772 -3.625 1.02734375 C-1.07368653 1.3069209 -1.07368653 1.3069209 0 0 Z " fill="#FA1D59" transform="translate(82,30)"/>
<path d="M0 0 C-1.11374709 2.96999225 -2.38716799 5.77626119 -3.85546875 8.58203125 C-6.15354065 13.15624888 -7.89509422 17.85304846 -9.5625 22.6875 C-9.86623535 23.5645459 -10.1699707 24.4415918 -10.48291016 25.34521484 C-15.2551728 39.38355632 -17.1776582 52.7176165 -17.1875 67.5 C-17.19974609 68.46808594 -17.21199219 69.43617188 -17.22460938 70.43359375 C-17.2389779 77.56996252 -16.4919738 84.33791148 -14.30932617 91.15820312 C-14.20724854 91.76599609 -14.1051709 92.37378906 -14 93 C-16.7945902 95.7945902 -18.52258486 95.25959603 -22.4375 95.2746582 C-23.4279834 95.2823246 -23.4279834 95.2823246 -24.43847656 95.29014587 C-26.62574269 95.30407003 -28.81269477 95.30308324 -31 95.30078125 C-32.51692828 95.3046663 -34.03385548 95.30900057 -35.55078125 95.31376648 C-38.73180669 95.3212345 -41.91272116 95.320933 -45.09375 95.31567383 C-49.17636413 95.30987466 -53.25852526 95.32681775 -57.34106445 95.3500185 C-60.47398549 95.36472714 -63.60679665 95.36563156 -66.73974609 95.36250877 C-68.24528909 95.36302332 -69.75083802 95.36828588 -71.25634766 95.37832069 C-73.3587009 95.39061457 -75.46016177 95.38393746 -77.5625 95.37231445 C-78.76003906 95.37294388 -79.95757812 95.3735733 -81.19140625 95.3742218 C-82.11824219 95.25072861 -83.04507813 95.12723541 -84 95 C-86 92 -86 92 -85.8125 88.8125 C-84.90458095 84.55226446 -83.78289601 80.97722957 -82 77 C-80.515 76.505 -80.515 76.505 -79 76 C-77.18093701 73.78945058 -77.18093701 73.78945058 -75.375 71.0625 C-68.01669278 60.68059746 -59.0235465 51.91012203 -50 43 C-49.18402344 42.17757812 -48.36804688 41.35515625 -47.52734375 40.5078125 C-44.67362259 37.67614483 -41.76205461 34.91874876 -38.8125 32.1875 C-38.24660156 31.66341553 -37.68070313 31.13933105 -37.09765625 30.59936523 C-32.91104176 26.75750996 -28.56838089 23.17831781 -24.08984375 19.6796875 C-20.920166 17.13209603 -18.19820475 14.29406113 -15.4375 11.3125 C-14 10 -14 10 -12.1328125 9.17578125 C-8.85881183 7.37088344 -6.98973317 4.56621391 -4.68359375 1.6796875 C-3 0 -3 0 0 0 Z " fill="#8D0018" transform="translate(134,220)"/>
<path d="M0 0 C0.69104324 -0.00175232 1.38208649 -0.00350464 2.09407043 -0.00531006 C4.3889107 -0.00972801 6.68367451 -0.0067908 8.97851562 -0.00341797 C10.56652847 -0.00409102 12.15454122 -0.00506106 13.74255371 -0.00631714 C17.07496112 -0.00779403 20.40734178 -0.00563983 23.73974609 -0.00097656 C28.02075073 0.00472073 32.30169268 0.00144168 36.58269501 -0.00454903 C39.86310299 -0.00815487 43.143496 -0.00701595 46.42390442 -0.00442123 C48.00283312 -0.00375203 49.58176317 -0.00458017 51.16069031 -0.00690079 C53.36367415 -0.0094277 55.56655511 -0.00558622 57.76953125 0 C59.65363708 0.00119339 59.65363708 0.00119339 61.57580566 0.00241089 C64.38476562 0.12939453 64.38476562 0.12939453 65.38476562 1.12939453 C65.79734211 7.1117535 65.0587815 10.78136277 62.38476562 16.12939453 C61.72476563 16.12939453 61.06476563 16.12939453 60.38476562 16.12939453 C59.15869945 17.71005827 58.00497897 19.3470297 56.88476562 21.00439453 C53.25739712 26.13274311 49.27550404 30.43224311 44.76367188 34.78564453 C42.63359808 36.88423941 40.687165 39.03387022 38.75976562 41.31689453 C35.92583088 44.61984877 32.8848744 47.4538637 29.56835938 50.26611328 C26.2029941 53.13781138 22.95210086 56.1349427 19.68164062 59.11376953 C13.96616097 64.12939453 13.96616097 64.12939453 11.38476562 64.12939453 C11.13726562 64.91314453 10.88976562 65.69689453 10.63476562 66.50439453 C9.18982277 69.53877452 8.32910743 69.79969178 5.38476562 71.12939453 C5.05476563 72.11939453 4.72476563 73.10939453 4.38476562 74.12939453 C1.41476563 74.62439453 1.41476563 74.62439453 -1.61523438 75.12939453 C-1.94523438 76.11939453 -2.27523437 77.10939453 -2.61523438 78.12939453 C-4.25490647 79.49578795 -5.92633565 80.82433643 -7.61523438 82.12939453 C-10.07047844 84.46772221 -12.3036228 86.70237126 -14.30273438 89.44189453 C-14.73585937 89.99876953 -15.16898438 90.55564453 -15.61523438 91.12939453 C-16.27523437 91.12939453 -16.93523437 91.12939453 -17.61523438 91.12939453 C-16.30553268 86.98200583 -14.97624788 82.94850079 -13.22070312 78.96533203 C-4.15702916 58.26803099 -0.26146013 31.60216487 -6.95898438 9.68017578 C-7.71665096 6.73519794 -7.78856375 4.1583254 -7.61523438 1.12939453 C-5.73462941 -0.75121043 -2.50165293 0.00158454 0 0 Z " fill="#FB128A" transform="translate(246.615234375,27.87060546875)"/>
<path d="M0 0 C3.50597283 10.51791849 -12.31552565 33.61517172 -17 43 C-23.04410634 54.67744818 -29.80048352 65.99000913 -36.81542969 77.10742188 C-37.58723327 78.34052603 -38.33911669 79.58639574 -39.06738281 80.84570312 C-40.0703125 82.515625 -40.0703125 82.515625 -42 85 C-43.32 85 -44.64 85 -46 85 C-47.07525194 87.65228812 -48.09456151 90.28368454 -49 93 C-49.99 93.66 -50.98 94.32 -52 95 C-52.495 96.485 -52.495 96.485 -53 98 C-53.66 98 -54.32 98 -55 98 C-55 98.99 -55 99.98 -55 101 C-55.66 101 -56.32 101 -57 101 C-57 101.99 -57 102.98 -57 104 C-57.81339844 104.32871094 -58.62679687 104.65742188 -59.46484375 104.99609375 C-67.2179968 108.21421915 -74.6201462 111.82654234 -82.0090332 115.80883789 C-86.91679667 118.44827419 -91.85135123 120.86200178 -97 123 C-98.19625 123.53625 -99.3925 124.0725 -100.625 124.625 C-107.89654377 127.5874808 -115.28001083 128.8084089 -123 130 C-123 126 -123 126 -121.35546875 124.21875 C-120.64003906 123.6515625 -119.92460937 123.084375 -119.1875 122.5 C-115.28054971 119.36874658 -112.7685641 116.15284615 -110 112 C-108.865625 111.566875 -107.73125 111.13375 -106.5625 110.6875 C-102.18185087 108.61245568 -102.09060414 107.24136954 -100 103 C-98.24782642 100.70218879 -96.3119381 98.58030067 -94.375 96.4375 C-89.30096161 90.71211178 -84.96499316 84.78894649 -80.83984375 78.3515625 C-79.92912109 77.18753906 -79.92912109 77.18753906 -79 76 C-78.01 76 -77.02 76 -76 76 C-75.731875 75.401875 -75.46375 74.80375 -75.1875 74.1875 C-74.00082594 72.00152146 -72.90400887 70.58667406 -71 69 C-70.34 69 -69.68 69 -69 69 C-68.773125 68.443125 -68.54625 67.88625 -68.3125 67.3125 C-66.58107416 64.26189257 -64.68615527 62.25881239 -62 60 C-58.6875 59.1875 -58.6875 59.1875 -56 59 C-55.896875 58.360625 -55.79375 57.72125 -55.6875 57.0625 C-55.460625 56.381875 -55.23375 55.70125 -55 55 C-54.01 54.67 -53.02 54.34 -52 54 C-51.443125 52.948125 -51.443125 52.948125 -50.875 51.875 C-48.61396309 48.40807674 -46.02710277 46.609655 -42.734375 44.15625 C-38.84921435 41.09252332 -35.28117378 37.72262519 -31.671875 34.3425293 C-28.88075637 31.73120413 -26.0790213 29.17841841 -23.125 26.75 C-20.05638867 24.16273947 -17.48872327 21.26775067 -14.89453125 18.2109375 C-12.75460234 15.7136184 -10.53572186 13.29834822 -8.3125 10.875 C-5.17387559 7.4043027 -2.42107162 4.00003137 0 0 Z " fill="#C2004B" transform="translate(307,43)"/>
<path d="M0 0 C0.99 0.33 1.98 0.66 3 1 C-5.91244694 14.81678226 -16.14486977 27.48093867 -26.53271484 40.20068359 C-31.83051404 46.69731922 -37.02442538 53.25281927 -42 60 C-41.34 60 -40.68 60 -40 60 C-38.51171875 61.7734375 -38.51171875 61.7734375 -36.6875 64.375 C-35.9759375 65.37660156 -35.264375 66.37820312 -34.53125 67.41015625 C-34.13164062 67.97750488 -33.73203125 68.54485352 -33.3203125 69.12939453 C-26.38797888 78.95105508 -19.36639983 88.69001321 -11.87915039 98.09741211 C-9.05835963 101.64177245 -6.31827039 105.23173969 -3.625 108.875 C1.55032663 115.8249898 7.05039489 122.50284963 12.53857422 129.20654297 C14.4214571 131.5172108 16.27461045 133.85076576 18.125 136.1875 C21.16128582 139.99723968 24.28372437 143.72520384 27.4375 147.4375 C30.99746295 151.63085333 34.55101489 155.82839416 38.0625 160.0625 C38.77535156 160.91972656 39.48820312 161.77695312 40.22265625 162.66015625 C41.79040068 164.72406594 42.94862838 166.64122325 44 169 C43.34 169 42.68 169 42 169 C42 168.34 42 167.68 42 167 C41.27167969 166.94457031 40.54335938 166.88914062 39.79296875 166.83203125 C35.99535045 165.70071279 34.72916354 163.78526056 32.3125 160.6875 C31.16201172 159.23923828 31.16201172 159.23923828 29.98828125 157.76171875 C28 155 28 155 26.91796875 152.76953125 C25.99972472 150.65087541 25.99972472 150.65087541 23 149 C23 148.34 23 147.68 23 147 C22.01 146.67 21.02 146.34 20 146 C18.97876261 144.34626122 17.98216835 142.67723675 17 141 C15.47770047 139.31979967 13.902377 137.68676141 12.2890625 136.09375 C10.91621094 134.73056641 10.91621094 134.73056641 9.515625 133.33984375 C8.55221228 132.39309794 7.58866958 131.44648436 6.625 130.5 C5.66880641 129.55385454 4.71307302 128.60724376 3.7578125 127.66015625 C1.99007674 125.90979991 0.22028851 124.16151214 -1.55224609 122.41601562 C-4.04580053 119.95479333 -6.52256134 117.47743866 -9 115 C-10.81389734 113.20072338 -12.62965713 111.40333667 -14.44538879 109.60591125 C-17.31687558 106.76114835 -20.18309957 103.9111078 -23.04907227 101.06079102 C-24.56521656 99.55478597 -26.08313886 98.05056892 -27.6027832 96.5480957 C-29.7984519 94.37655263 -31.98771538 92.19873134 -34.17578125 90.01953125 C-34.86005692 89.34557816 -35.54433258 88.67162506 -36.24934387 87.97724915 C-36.87386948 87.3528746 -37.49839508 86.72850006 -38.1418457 86.08520508 C-38.69524124 85.53625076 -39.24863678 84.98729645 -39.81880188 84.42170715 C-41 83 -41 83 -41 81 C-41.99 80.67 -42.98 80.34 -44 80 C-45.4375 78.5390625 -45.4375 78.5390625 -47 76.625 C-50.00862251 73.06819627 -53.18298591 69.77145071 -56.5 66.5 C-60.88528124 62.16890386 -65.0049429 57.6910933 -69 53 C-70.90265498 50.85341489 -72.80733807 48.70868186 -74.71484375 46.56640625 C-76 45 -76 45 -76 44 C-75.28714844 43.87882812 -74.57429687 43.75765625 -73.83984375 43.6328125 C-62.74581486 41.69173073 -53.18267034 38.0845359 -43.0625 33.3125 C-42.33393799 32.96944824 -41.60537598 32.62639648 -40.85473633 32.27294922 C-32.41219996 28.27743916 -23.95024738 24.22690445 -15.73828125 19.7734375 C-14 19 -14 19 -11 19 C-11 18.01 -11 17.02 -11 16 C-10.34 16 -9.68 16 -9 16 C-9 15.01 -9 14.02 -9 13 C-8.34 13 -7.68 13 -7 13 C-6.896875 12.360625 -6.79375 11.72125 -6.6875 11.0625 C-6.460625 10.381875 -6.23375 9.70125 -6 9 C-5.01 8.67 -4.02 8.34 -3 8 C-2.814375 6.8553125 -2.814375 6.8553125 -2.625 5.6875 C-2 3 -2 3 0 0 Z " fill="#99013A" transform="translate(261,128)"/>
<path d="M0 0 C0.495 0.99 0.495 0.99 1 2 C0.34 2.99 -0.32 3.98 -1 5 C-0.505 6.485 -0.505 6.485 0 8 C-0.99609375 10.69921875 -0.99609375 10.69921875 -2.4375 13.6875 C-2.91058594 14.68136719 -3.38367188 15.67523438 -3.87109375 16.69921875 C-4.24363281 17.45847656 -4.61617188 18.21773437 -5 19 C-5.66 19 -6.32 19 -7 19 C-7.4021875 20.36125 -7.4021875 20.36125 -7.8125 21.75 C-8.91768218 24.77470911 -10.0632447 26.49835774 -12 29 C-13.71104151 32.61219875 -14.44882324 36.0498999 -15 40 C-15.66 40 -16.32 40 -17 40 C-17 40.99 -17 41.98 -17 43 C-17.66 43 -18.32 43 -19 43 C-19.04125 43.5775 -19.0825 44.155 -19.125 44.75 C-20.43185635 48.11048777 -23.01265429 49.0471415 -26 51 C-27.99995093 52.6205136 -29.97894335 54.26719347 -31.9375 55.9375 C-43.86246787 66 -43.86246787 66 -47 66 C-47 66.66 -47 67.32 -47 68 C-48.74036494 69.30078823 -50.54581891 70.51488895 -52.375 71.6875 C-56.35813502 74.27583568 -60.3087862 76.8824134 -64.1875 79.625 C-65.79142972 80.75033779 -67.39559329 81.87534236 -69 83 C-69.83015625 83.58394531 -70.6603125 84.16789062 -71.515625 84.76953125 C-72.31484375 85.31996094 -73.1140625 85.87039062 -73.9375 86.4375 C-75.00291016 87.17806641 -75.00291016 87.17806641 -76.08984375 87.93359375 C-78 89 -78 89 -81 89 C-81 89.66 -81 90.32 -81 91 C-82.6796875 92.2890625 -82.6796875 92.2890625 -84.875 93.625 C-85.59429687 94.07101563 -86.31359375 94.51703125 -87.0546875 94.9765625 C-89 96 -89 96 -91 96 C-89.74417988 90.176226 -87.68839604 86.90363076 -83.6875 82.5625 C-80.44470731 78.91856418 -77.45374514 75.4305916 -75 71.1875 C-74.34 70.135625 -73.68 69.08375 -73 68 C-72.01 68 -71.02 68 -70 68 C-69.731875 67.401875 -69.46375 66.80375 -69.1875 66.1875 C-68.00082594 64.00152146 -66.90400887 62.58667406 -65 61 C-64.34 61 -63.68 61 -63 61 C-62.773125 60.443125 -62.54625 59.88625 -62.3125 59.3125 C-60.58107416 56.26189257 -58.68615527 54.25881239 -56 52 C-52.6875 51.1875 -52.6875 51.1875 -50 51 C-49.896875 50.360625 -49.79375 49.72125 -49.6875 49.0625 C-49.460625 48.381875 -49.23375 47.70125 -49 47 C-48.01 46.67 -47.02 46.34 -46 46 C-45.62875 45.29875 -45.2575 44.5975 -44.875 43.875 C-42.61396309 40.40807674 -40.02710277 38.609655 -36.734375 36.15625 C-32.84921435 33.09252332 -29.28117378 29.72262519 -25.671875 26.3425293 C-22.88075637 23.73120413 -20.0790213 21.17841841 -17.125 18.75 C-13.31886333 15.54384546 -10.20582077 11.79061885 -7 8 C-5.69004271 6.49777892 -4.37762069 4.99770284 -3.0625 3.5 C-2.47597656 2.8296875 -1.88945312 2.159375 -1.28515625 1.46875 C-0.86105469 0.9840625 -0.43695313 0.499375 0 0 Z " fill="#D50151" transform="translate(301,51)"/>
<path d="M0 0 C0.69104324 -0.00175232 1.38208649 -0.00350464 2.09407043 -0.00531006 C4.3889107 -0.00972801 6.68367451 -0.0067908 8.97851562 -0.00341797 C10.56652847 -0.00409102 12.15454122 -0.00506106 13.74255371 -0.00631714 C17.07496112 -0.00779403 20.40734178 -0.00563983 23.73974609 -0.00097656 C28.02075073 0.00472073 32.30169268 0.00144168 36.58269501 -0.00454903 C39.86310299 -0.00815487 43.143496 -0.00701595 46.42390442 -0.00442123 C48.00283312 -0.00375203 49.58176317 -0.00458017 51.16069031 -0.00690079 C53.36367415 -0.0094277 55.56655511 -0.00558622 57.76953125 0 C59.65363708 0.00119339 59.65363708 0.00119339 61.57580566 0.00241089 C64.38476562 0.12939453 64.38476562 0.12939453 65.38476562 1.12939453 C65.79734211 7.1117535 65.0587815 10.78136277 62.38476562 16.12939453 C61.72476563 16.12939453 61.06476563 16.12939453 60.38476562 16.12939453 C59.15869945 17.71005827 58.00497897 19.3470297 56.88476562 21.00439453 C52.61777111 27.03892144 47.7173992 32.04162678 42.38476562 37.12939453 C41.0480266 38.45931346 39.71351972 39.79149763 38.38476562 41.12939453 C38.05476563 40.13939453 37.72476563 39.14939453 37.38476562 38.12939453 C38.04476562 38.12939453 38.70476562 38.12939453 39.38476562 38.12939453 C39.38476562 37.13939453 39.38476562 36.14939453 39.38476562 35.12939453 C40.37476563 35.12939453 41.36476563 35.12939453 42.38476562 35.12939453 C42.42601562 34.24251953 42.46726562 33.35564453 42.50976562 32.44189453 C43.71706974 27.87138608 45.54556005 26.7933331 49.38476562 24.12939453 C50.04476562 24.12939453 50.70476562 24.12939453 51.38476562 24.12939453 C51.38476562 23.13939453 51.38476562 22.14939453 51.38476562 21.12939453 C52.75976562 19.44189453 52.75976562 19.44189453 54.38476562 18.12939453 C55.04476562 18.12939453 55.70476562 18.12939453 56.38476562 18.12939453 C56.47757813 17.10845703 56.47757813 17.10845703 56.57226562 16.06689453 C57.53025823 12.60338282 59.13465965 10.48009649 61.32617188 7.68017578 C62.57269516 6.16702866 62.57269516 6.16702866 62.38476562 4.12939453 C61.72476563 4.62439453 61.06476563 5.11939453 60.38476562 5.62939453 C56.67293399 7.48531035 53.42181844 7.84181562 49.38476562 7.12939453 C48.32 6.63310547 47.25523437 6.13681641 46.15820312 5.62548828 C42.04025394 3.78038315 38.34273119 3.71720836 33.88476562 3.81689453 C33.16417969 3.81367188 32.44359375 3.81044922 31.70117188 3.80712891 C25.87471736 3.86507737 20.90354607 5.28980105 15.38476562 7.12939453 C15.05476563 6.46939453 14.72476562 5.80939453 14.38476562 5.12939453 C13.20398438 5.14099609 12.02320313 5.15259766 10.80664062 5.16455078 C9.24935054 5.17393205 7.69205875 5.18303189 6.13476562 5.19189453 C5.35746094 5.20027344 4.58015625 5.20865234 3.77929688 5.21728516 C2.64814453 5.22211914 2.64814453 5.22211914 1.49414062 5.22705078 C0.45725098 5.23490601 0.45725098 5.23490601 -0.60058594 5.24291992 C-2.71497335 5.12377424 -4.58164953 4.70557691 -6.61523438 4.12939453 C-6.94523438 5.11939453 -7.27523437 6.10939453 -7.61523438 7.12939453 C-7.65777794 5.12984707 -7.6560422 3.12897817 -7.61523438 1.12939453 C-5.73462941 -0.75121043 -2.50165293 0.00158454 0 0 Z " fill="#F2679F" transform="translate(246.615234375,27.87060546875)"/>
<path d="M0 0 C0.70548981 0.00202423 1.41097961 0.00404846 2.1378479 0.00613403 C3.24756454 0.00350555 3.24756454 0.00350555 4.37969971 0.00082397 C6.83686638 -0.00359453 9.29396168 -0.00065657 11.75112915 0.00271606 C13.45124322 0.00204302 15.1513572 0.001073 16.85147095 -0.00018311 C20.41926996 -0.00166008 23.98704398 0.00049445 27.55484009 0.00515747 C32.13851409 0.01085476 36.72212954 0.00757575 41.30580139 0.00158501 C44.81782476 -0.00202063 48.32983414 -0.00088201 51.84185791 0.0017128 C53.53243008 0.00238206 55.22300351 0.00155367 56.91357422 -0.00076675 C59.27222072 -0.00329332 61.6307711 0.00054735 63.9894104 0.00613403 C64.69490021 0.0041098 65.40039001 0.00208557 66.1272583 0 C70.94936644 0.02126585 70.94936644 0.02126585 72.06362915 1.13552856 C72.32159843 2.7144249 72.5427716 4.29932273 72.75112915 5.88552856 C74.80009523 18.65333955 78.31846244 31.71345457 84.18081665 43.27224731 C85.06362915 45.13552856 85.06362915 45.13552856 85.06362915 47.13552856 C84.40362915 47.13552856 83.74362915 47.13552856 83.06362915 47.13552856 C82.22150659 45.22270731 81.39024051 43.30510383 80.56362915 41.38552856 C79.8675354 39.78451294 79.8675354 39.78451294 79.15737915 38.15115356 C78.06362915 35.13552856 78.06362915 35.13552856 78.06362915 31.13552856 C76.57862915 30.64052856 76.57862915 30.64052856 75.06362915 30.13552856 C74.02487981 27.30448629 73.18923871 24.60617058 72.43862915 21.69802856 C72.21989136 20.88285767 72.00115356 20.06768677 71.77578735 19.22781372 C70.29459065 13.52636846 69.34893825 8.03191662 69.06362915 2.13552856 C67.77778931 2.24380981 67.77778931 2.24380981 66.4659729 2.35427856 C60.64017523 2.82717308 54.90912907 3.13552856 49.06362915 3.13552856 C47.88800415 3.30052856 46.71237915 3.46552856 45.50112915 3.63552856 C38.73707879 4.56392763 31.13830582 5.02477041 24.4503479 3.56521606 C21.6773261 3.06598137 19.79805105 3.52599799 17.06362915 4.13552856 C15.27246117 4.17779802 13.47982529 4.1765875 11.68862915 4.13552856 C7.34630103 4.08852095 3.33420984 4.37631422 -0.93637085 5.13552856 C-0.93637085 5.79552856 -0.93637085 6.45552856 -0.93637085 7.13552856 C-2.87387085 7.69802856 -2.87387085 7.69802856 -4.93637085 8.13552856 C-5.93637085 7.13552856 -5.93637085 7.13552856 -6.06137085 4.13552856 C-5.85980246 -0.7021128 -4.40516031 0.01942708 0 0 Z " fill="#E095A5" transform="translate(59.936370849609375,27.864471435546875)"/>
<path d="M0 0 C0.495 1.98 0.495 1.98 1 4 C0.34 4.33 -0.32 4.66 -1 5 C-1.33 5.99 -1.66 6.98 -2 8 C-2.66 8 -3.32 8 -4 8 C-4.0825 8.66 -4.165 9.32 -4.25 10 C-5.2499585 13.999834 -7.08704869 17.36900186 -9 21 C-9.47953125 22.0209375 -9.47953125 22.0209375 -9.96875 23.0625 C-11 25 -11 25 -13.5625 27.9375 C-16.13211068 30.67410916 -16.13211068 30.67410916 -16.44140625 33.37890625 C-17.12213211 36.57308145 -18.43822292 38.38494233 -20.375 41 C-23.93701185 45.85039911 -26.91587557 50.3206644 -28.8125 56.0625 C-31.00491318 62.3241003 -33.92691929 68.13041585 -37 74 C-37.66 74 -38.32 74 -39 74 C-39 74.66 -39 75.32 -39 76 C-39.66 76 -40.32 76 -41 76 C-40.566875 77.2375 -40.566875 77.2375 -40.125 78.5 C-39.95931615 83.13914783 -41.66541554 84.92002827 -44.45703125 88.4609375 C-46 90 -46 90 -48 90 C-46.04474824 83.77748732 -43.75452833 77.81443909 -41.0625 71.875 C-40.67771484 71.02389648 -40.29292969 70.17279297 -39.89648438 69.29589844 C-30.50858372 48.83680056 -19.8703541 28.49787735 -7 10 C-5.98292969 8.53433594 -5.98292969 8.53433594 -4.9453125 7.0390625 C-3.30478613 4.68698253 -1.65698954 2.34049773 0 0 Z " fill="#BE0713" transform="translate(101,207)"/>
<path d="M0 0 C5.28172343 4.15795249 9.36528038 8.70580322 13.55859375 13.94921875 C20.78194719 22.97552121 28.39401189 31.606255 36.27734375 40.05859375 C38.50769146 42.45443617 40.67614367 44.89453258 42.8125 47.375 C44.97315138 49.87653084 47.20728916 52.24312933 49.5625 54.5625 C50.70833333 55.70833333 51.85416667 56.85416667 53 58 C53.56203125 58.54140625 54.1240625 59.0828125 54.703125 59.640625 C58.65173074 63.74257466 59.82277924 67.11826443 60.48046875 72.765625 C61.08429373 75.36252641 61.97742774 76.32088341 64 78 C63.505 79.485 63.505 79.485 63 81 C56.62305532 73.10165228 50.32966056 65.16912482 44.26953125 57.0234375 C37.59378857 48.13010732 30.68888021 39.44467254 23.35205078 31.08618164 C20 27.21394269 20 27.21394269 20 25 C19.34 25 18.68 25 18 25 C16.76844632 23.46659493 15.61615395 21.86933811 14.5 20.25 C10.58595983 14.70271144 6.34170963 9.57044383 1.90625 4.43359375 C0 2 0 2 0 0 Z " fill="#AA0A12" transform="translate(57,36)"/>
<path d="M0 0 C2 2 2 2 2 5 C2.66 5 3.32 5 4 5 C4 5.66 4 6.32 4 7 C4.99 7 5.98 7 7 7 C7 7.66 7 8.32 7 9 C8.10396118 8.94670532 8.10396118 8.94670532 9.23022461 8.89233398 C24.48792249 8.18892746 39.66835902 7.87944415 54.9375 8.3125 C55.99685257 8.33822586 55.99685257 8.33822586 57.0776062 8.36447144 C59.10281483 8.41602263 61.12760876 8.48313701 63.15234375 8.55078125 C64.8847229 8.60745972 64.8847229 8.60745972 66.65209961 8.6652832 C70.34546105 9.03453855 73.46878776 9.88279775 77 11 C77 11.33 77 11.66 77 12 C52.25 12 27.5 12 2 12 C0.38262276 7.14786828 -0.22942798 4.81798756 0 0 Z " fill="#A02656" transform="translate(237,304)"/>
<path d="M0 0 C3.83822262 1.52145762 5.71669764 3.79236536 8.25 7 C9.43722656 8.48886719 9.43722656 8.48886719 10.6484375 10.0078125 C11.42445313 10.99523437 12.20046875 11.98265625 13 13 C17.40096784 18.54904641 21.85114148 24.04099293 26.4375 29.4375 C29.99755008 33.63077768 33.5510162 37.82839574 37.0625 42.0625 C37.77535156 42.91972656 38.48820312 43.77695312 39.22265625 44.66015625 C40.79040068 46.72406594 41.94862838 48.64122325 43 51 C42.34 51 41.68 51 41 51 C41 50.34 41 49.68 41 49 C40.27167969 48.94457031 39.54335938 48.88914062 38.79296875 48.83203125 C34.99535045 47.70071279 33.72916354 45.78526056 31.3125 42.6875 C30.54550781 41.72199219 29.77851563 40.75648438 28.98828125 39.76171875 C27 37 27 37 25.91796875 34.76953125 C24.99972472 32.65087541 24.99972472 32.65087541 22 31 C22 30.34 22 29.68 22 29 C21.01 28.67 20.02 28.34 19 28 C17.97546831 26.34830009 16.97835294 24.67946519 16 23 C14.69939533 21.62071637 13.34710254 20.2887496 11.953125 19.00390625 C11.19128906 18.28009766 10.42945313 17.55628906 9.64453125 16.81054688 C8.0417909 15.30585344 6.42967761 13.81108469 4.80859375 12.32617188 C2.68713465 10.2932575 0.73041192 8.37556216 -1 6 C-1.015625 2.46484375 -1.015625 2.46484375 0 0 Z " fill="#BE0B32" transform="translate(262,246)"/>
<path d="M0 0 C3.50597283 10.51791849 -12.31552565 33.61517172 -17 43 C-24.44826836 57.39034372 -32.69129804 71.72570752 -42 85 C-42.33 85 -42.66 85 -43 85 C-43.1875 82.6875 -43.1875 82.6875 -43 80 C-41.625 78.5 -41.625 78.5 -40 77 C-39.31867549 75.33927151 -38.65257873 73.672233 -38 72 C-37.319375 71.13375 -37.319375 71.13375 -36.625 70.25 C-35.02804759 68.03883512 -34.15495679 66.0750962 -33.125 63.5625 C-31.39666985 59.49858857 -29.27184647 57.00656162 -26 54 C-25.67 53.01 -25.34 52.02 -25 51 C-24.34 51 -23.68 51 -23 51 C-23 50.01 -23 49.02 -23 48 C-22.34 48 -21.68 48 -21 48 C-21.0825 47.175 -21.165 46.35 -21.25 45.5 C-20.8043417 39.26078382 -17.23548858 34.23841008 -14 29 C-13.67 28.34 -13.34 27.68 -13 27 C-12.34 27 -11.68 27 -11 27 C-10.9175 26.34 -10.835 25.68 -10.75 25 C-9.75240209 21.00960837 -7.92833317 17.61450357 -6 14 C-6.66 13.67 -7.32 13.34 -8 13 C-6.85605098 11.01974361 -5.70978896 9.04082322 -4.5625 7.0625 C-3.60537109 5.40927734 -3.60537109 5.40927734 -2.62890625 3.72265625 C-1 1 -1 1 0 0 Z " fill="#B31154" transform="translate(307,43)"/>
<path d="M0 0 C4.10231466 4.10231466 2.94250477 12.24639538 3.125 17.8125 C3 21 3 21 2.5 24.125 C2.04610722 27.64266904 2.00081199 30.83822055 2.0625 34.375 C2.1065932 39.181159 1.71452282 43.38463504 0.5 48.0234375 C-0.10202221 50.23274097 -0.10202221 50.23274097 -0.4375 53.5 C-1.37653424 59.34287969 -3.27243726 64.75468704 -6 70 C-6.495 70.99 -6.495 70.99 -7 72 C-6.34 72.33 -5.68 72.66 -5 73 C-6.52994792 74.23697917 -8.05989583 75.47395833 -9.58984375 76.7109375 C-11.13266437 77.9666391 -11.13266437 77.9666391 -12 80 C-12.66 80 -13.32 80 -14 80 C-12.6902983 75.8526113 -11.3610135 71.81910626 -9.60546875 67.8359375 C-0.11893172 46.17300991 -0.2374222 23.23872132 0 0 Z " fill="#F3035B" transform="translate(243,39)"/>
<path d="M0 0 C1.06845406 -0.00021904 1.06845406 -0.00021904 2.15849304 -0.0004425 C4.51763941 0.00025528 6.87670724 0.00804142 9.23583984 0.01586914 C10.86965898 0.0177338 12.50347868 0.01915747 14.13729858 0.02015686 C18.44125914 0.0239783 22.74518605 0.03380541 27.0491333 0.04486084 C31.43948918 0.05508297 35.82985049 0.0596562 40.22021484 0.06469727 C48.8374178 0.075428 57.45459339 0.09249996 66.07177734 0.11352539 C66.07177734 0.44352539 66.07177734 0.77352539 66.07177734 1.11352539 C59.383498 1.67674891 52.7851879 2.11352539 46.07177734 2.11352539 C44.89615234 2.27852539 43.72052734 2.44352539 42.50927734 2.61352539 C35.74522698 3.54192446 28.14645401 4.00276723 21.45849609 2.54321289 C18.6854743 2.0439782 16.80619924 2.50399481 14.07177734 3.11352539 C12.28060936 3.15579484 10.48797348 3.15458433 8.69677734 3.11352539 C4.35444922 3.06651778 0.34235803 3.35431105 -3.92822266 4.11352539 C-3.92822266 4.77352539 -3.92822266 5.43352539 -3.92822266 6.11352539 C-5.86572266 6.67602539 -5.86572266 6.67602539 -7.92822266 7.11352539 C-8.92822266 6.11352539 -8.92822266 6.11352539 -8.99072266 3.55102539 C-8.97009766 2.74665039 -8.94947266 1.94227539 -8.92822266 1.11352539 C-5.96414707 -0.3685124 -3.307431 -0.00568287 0 0 Z " fill="#FB7986" transform="translate(62.92822265625,28.886474609375)"/>
<path d="M0 0 C0.66 0.33 1.32 0.66 2 1 C0.53515625 6.859375 0.53515625 6.859375 -0.9296875 12.71875 C-1.19410645 13.78802734 -1.19410645 13.78802734 -1.46386719 14.87890625 C-1.80909164 16.24471227 -2.16808268 17.60714965 -2.54394531 18.96484375 C-4.9970025 28.01248326 -5.18129047 37.1732919 -5.1875 46.5 C-5.19974609 47.46808594 -5.21199219 48.43617188 -5.22460938 49.43359375 C-5.240422 57.28719726 -3.9180742 64.41826993 -2 72 C-6.1795645 74.78637633 -8.14668677 73.79562512 -13 73 C-13 72.67 -13 72.34 -13 72 C-10.69 72 -8.38 72 -6 72 C-6 68.7 -6 65.4 -6 62 C-6.66 62 -7.32 62 -8 62 C-8.02897435 57.72918086 -8.04678996 53.45838691 -8.0625 49.1875 C-8.07087891 47.97255859 -8.07925781 46.75761719 -8.08789062 45.50585938 C-8.09111328 44.34248047 -8.09433594 43.17910156 -8.09765625 41.98046875 C-8.10289307 40.90692139 -8.10812988 39.83337402 -8.11352539 38.72729492 C-8 36 -8 36 -7 33 C-6.88889218 31.16877855 -6.78171783 29.33707225 -6.70947266 27.50390625 C-6.43225141 20.51728998 -5.74099329 14.49859912 -3 8 C-2.43373485 6.48056456 -1.87110612 4.95976787 -1.3125 3.4375 C-0.879375 2.303125 -0.44625 1.16875 0 0 Z " fill="#750A27" transform="translate(122,241)"/>
<path d="M0 0 C1.61949011 2.57213134 2.04408751 3.67669159 1.625 6.75 C1.41875 7.4925 1.2125 8.235 1 9 C1.56533447 8.83628906 2.13066895 8.67257812 2.71313477 8.50390625 C5.09546608 7.97896424 7.15387549 7.90150416 9.58984375 7.9375 C10.45673828 7.94523437 11.32363281 7.95296875 12.21679688 7.9609375 C14.02669351 7.98692309 15.83658935 8.01296452 17.64648438 8.0390625 C18.51466797 8.04679687 19.38285156 8.05453125 20.27734375 8.0625 C21.06359131 8.07410156 21.84983887 8.08570313 22.65991211 8.09765625 C25.0337374 8.06008195 25.0337374 8.06008195 27.45043945 7.50390625 C36.27346108 5.76008583 45.87268516 7.18898605 54.75 8 C55.84054688 8.09539062 56.93109375 8.19078125 58.0546875 8.2890625 C60.70357074 8.52142068 63.35194196 8.75844982 66 9 C66 9.33 66 9.66 66 10 C57.29886666 10.06942477 48.59782824 10.12277271 39.89647865 10.15543652 C35.85634219 10.17111131 31.81639481 10.19238225 27.77636719 10.22631836 C23.87954213 10.25884776 19.98289926 10.27683934 16.08594894 10.28463173 C14.59713242 10.29018685 13.10832618 10.30103436 11.61958694 10.31719017 C9.53865034 10.33888007 7.45847235 10.34197061 5.37744141 10.34057617 C3.59873154 10.35056892 3.59873154 10.35056892 1.78408813 10.36076355 C0.86533905 10.24171158 -0.05341003 10.12265961 -1 10 C-3.1387261 6.79191085 -3.47730962 5.72301503 -3 2 C-2.01 1.34 -1.02 0.68 0 0 Z " fill="#620010" transform="translate(51,305)"/>
<path d="M0 0 C0.66 0.33 1.32 0.66 2 1 C1.01913574 10.97211994 -4.26262886 16.31263754 -10.9375 23.4375 C-13.96223215 26.66768565 -16.93205993 29.88581817 -19.69140625 33.34765625 C-22 36 -22 36 -25 37 C-25 36.01 -25 35.02 -25 34 C-24.34 34 -23.68 34 -23 34 C-23 33.01 -23 32.02 -23 31 C-22.01 31 -21.02 31 -20 31 C-19.95875 30.113125 -19.9175 29.22625 -19.875 28.3125 C-18.66769588 23.74199155 -16.83920558 22.66393857 -13 20 C-12.34 20 -11.68 20 -11 20 C-11 19.01 -11 18.02 -11 17 C-9.625 15.3125 -9.625 15.3125 -8 14 C-7.34 14 -6.68 14 -6 14 C-5.938125 13.319375 -5.87625 12.63875 -5.8125 11.9375 C-4.8545074 8.47398829 -3.25010597 6.35070196 -1.05859375 3.55078125 C0.18792954 2.03763413 0.18792954 2.03763413 0 0 Z " fill="#F833A5" transform="translate(309,32)"/>
<path d="M0 0 C0.66 0.99 1.32 1.98 2 3 C1.34 3 0.68 3 0 3 C-0.13792969 3.71542969 -0.27585937 4.43085938 -0.41796875 5.16796875 C-2.02389707 12.98204949 -4.16386085 19.98912501 -8 27 C-8.66 27 -9.32 27 -10 27 C-10 27.66 -10 28.32 -10 29 C-10.66 29 -11.32 29 -12 29 C-11.71125 29.825 -11.4225 30.65 -11.125 31.5 C-10.95931615 36.13914783 -12.66541554 37.92002827 -15.45703125 41.4609375 C-17 43 -17 43 -19 43 C-16.99534572 36.56019298 -14.55416561 30.44312283 -11.75 24.3125 C-11.3588501 23.44979492 -10.9677002 22.58708984 -10.56469727 21.69824219 C-7.22092441 14.37333436 -3.68594873 7.15856281 0 0 Z " fill="#B91722" transform="translate(72,254)"/>
<path d="M0 0 C7.08598117 2.80218346 12.19532739 11.02693505 15.625 17.5625 C16.07875 18.696875 16.5325 19.83125 17 21 C16.67 21.66 16.34 22.32 16 23 C13.11745751 20.32057922 10.27471222 17.6023123 7.4375 14.875 C6.61830078 14.11445313 5.79910156 13.35390625 4.95507812 12.5703125 C4.18486328 11.82265625 3.41464844 11.075 2.62109375 10.3046875 C1.9036499 9.62390137 1.18620605 8.94311523 0.44702148 8.24169922 C-1 6 -1 6 -0.72631836 2.73095703 C-0.4866333 1.82974121 -0.24694824 0.92852539 0 0 Z " fill="#9F0B30" transform="translate(262,246)"/>
<path d="M0 0 C1.70840281 1.63412443 2.93453047 2.86906094 4 5 C4.66 4.67 5.32 4.34 6 4 C6.061875 4.556875 6.12375 5.11375 6.1875 5.6875 C7.72692261 10.06893358 11.58636841 12.68497886 15.125 15.5 C17.94814516 17.95490883 19.1475527 19.81379065 21 23 C23.87786148 26.50479718 26.94252022 29.85011908 30.01171875 33.1875 C30.96498047 34.239375 30.96498047 34.239375 31.9375 35.3125 C32.52402344 35.94800781 33.11054687 36.58351562 33.71484375 37.23828125 C35 39 35 39 35 42 C29.42087667 36.51167615 23.88747706 31.04423148 18.8046875 25.0859375 C16.60983863 22.54903426 14.3358105 20.09178374 12.0625 17.625 C7.46904341 12.59541124 3.17681364 7.37852259 -1 2 C-0.67 1.34 -0.34 0.68 0 0 Z " fill="#F23F43" transform="translate(72,50)"/>
<path d="M0 0 C1.66666667 1.66666667 3.33333333 3.33333333 5 5 C5.886875 5.721875 6.77375 6.44375 7.6875 7.1875 C10.53417226 10.64966896 10.90081402 13.32604424 11.4453125 17.6953125 C12.07840946 20.32578579 12.94408194 21.2997002 15 23 C14.67 23.99 14.34 24.98 14 26 C12.0356004 23.58820862 10.07958512 21.16974955 8.125 18.75 C7.56941406 18.06808594 7.01382813 17.38617188 6.44140625 16.68359375 C5.90644531 16.01972656 5.37148437 15.35585937 4.8203125 14.671875 C4.32805176 14.0644043 3.83579102 13.45693359 3.32861328 12.83105469 C0.15497973 8.45724881 -0.20893618 5.43234056 0 0 Z " fill="#B90612" transform="translate(106,91)"/>
<path d="M0 0 C2.109375 0.421875 2.109375 0.421875 4 1 C3.52691406 1.44988281 3.05382812 1.89976562 2.56640625 2.36328125 C-5.94190705 10.63939887 -13.06103934 19.85143517 -19.81396484 29.58056641 C-20.85352305 31.06964076 -21.92374321 32.53723036 -23 34 C-23.33 34 -23.66 34 -24 34 C-24.36945813 29.44334975 -24.36945813 29.44334975 -22.75 27.5 C-22.1725 27.005 -21.595 26.51 -21 26 C-18.85114015 23.39532139 -16.8741454 20.8112181 -15 18 C-14.01 17.67 -13.02 17.34 -12 17 C-12.33 16.01 -12.66 15.02 -13 14 C-11.671875 11.95703125 -11.671875 11.95703125 -9.75 9.8125 C-9.12609375 9.09707031 -8.5021875 8.38164062 -7.859375 7.64453125 C-6 6 -6 6 -3 6 C-3 5.01 -3 4.02 -3 3 C-1.75 1.25 -1.75 1.25 0 0 Z " fill="#AA0D2D" transform="translate(158,186)"/>
<path d="M0 0 C4.10231466 4.10231466 2.94250477 12.24639538 3.125 17.8125 C3 21 3 21 2.5 24.125 C1.89368456 28.82394463 2.02266396 33.37964009 2.16015625 38.109375 C2 41 2 41 0 44 C-0.66 44 -1.32 44 -2 44 C-1.84660156 42.71351562 -1.69320312 41.42703125 -1.53515625 40.1015625 C-0.74633335 32.21333354 -0.63958722 24.29516927 -0.4375 16.375 C-0.39421085 14.78254306 -0.35059363 13.190095 -0.30664062 11.59765625 C-0.2006458 7.73186282 -0.09908675 3.86597641 0 0 Z " fill="#ED0C6A" transform="translate(243,39)"/>
<path d="M0 0 C0.66 0.33 1.32 0.66 2 1 C0.38113585 2.67262717 -1.2452729 4.33795537 -2.875 6 C-4.23238281 7.3921875 -4.23238281 7.3921875 -5.6171875 8.8125 C-8 11 -8 11 -10 11 C-10 11.66 -10 12.32 -10 13 C-11.71951974 14.53851766 -13.50187497 16.00731759 -15.3125 17.4375 C-19.15470832 20.43178731 -19.15470832 20.43178731 -22.66796875 23.78515625 C-24 25 -24 25 -27 25 C-25.41649903 20.64278491 -22.02069861 18.17705189 -18.5625 15.3125 C-17.9422998 14.79010742 -17.32209961 14.26771484 -16.68310547 13.72949219 C-14.79573882 12.14435566 -12.89983385 10.57016412 -11 9 C-10.14172607 8.29012939 -10.14172607 8.29012939 -9.26611328 7.56591797 C-6.19043449 5.02777207 -3.1014964 2.50651546 0 0 Z " fill="#780013" transform="translate(194,158)"/>
<path d="M0 0 C0.81121879 2.31625577 1.17505765 3.53798038 0.29077148 5.87182617 C-0.09522217 6.50580322 -0.48121582 7.13978027 -0.87890625 7.79296875 C-1.30308838 8.50203369 -1.72727051 9.21109863 -2.16430664 9.94165039 C-2.62571045 10.68278076 -3.08711426 11.42391113 -3.5625 12.1875 C-4.02197021 12.94474365 -4.48144043 13.7019873 -4.95483398 14.48217773 C-12.25999803 26.45114136 -12.25999803 26.45114136 -15 30 C-15.33 30 -15.66 30 -16 30 C-16.1875 27.6875 -16.1875 27.6875 -16 25 C-14.625 23.5 -14.625 23.5 -13 22 C-12.31867549 20.33927151 -11.65257873 18.672233 -11 17 C-10.54625 16.4225 -10.0925 15.845 -9.625 15.25 C-8.01994746 13.02761957 -7.1129137 11.02099289 -6.0625 8.5 C-4.5452081 4.94403017 -3.04012477 2.49724535 0 0 Z " fill="#A40E4E" transform="translate(280,98)"/>
<path d="M0 0 C0.33 0.66 0.66 1.32 1 2 C-2.45002876 11.02162692 -9.92492089 19.58306779 -17 26 C-17.66 26 -18.32 26 -19 26 C-19 26.66 -19 27.32 -19 28 C-19.66 27.67 -20.32 27.34 -21 27 C-14.19726981 17.8260982 -7.3428885 8.75212973 0 0 Z " fill="#C01320" transform="translate(128,172)"/>
<path d="M0 0 C2.64 0.33 5.28 0.66 8 1 C8 1.33 8 1.66 8 2 C10.97 2.495 10.97 2.495 14 3 C14 3.66 14 4.32 14 5 C14.66 5.33 15.32 5.66 16 6 C15.67 6.66 15.34 7.32 15 8 C15.969375 8.268125 16.93875 8.53625 17.9375 8.8125 C18.948125 9.204375 19.95875 9.59625 21 10 C21.33 10.99 21.66 11.98 22 13 C16.25 11.125 16.25 11.125 14 10 C14 9.34 14 8.68 14 8 C13.34 8 12.68 8 12 8 C11.01 9.485 11.01 9.485 10 11 C9.16855469 10.02546875 9.16855469 10.02546875 8.3203125 9.03125 C7.59585938 8.1959375 6.87140625 7.360625 6.125 6.5 C5.40570313 5.6646875 4.68640625 4.829375 3.9453125 3.96875 C3.30335937 3.3190625 2.66140625 2.669375 2 2 C1.34 2 0.68 2 0 2 C0 1.34 0 0.68 0 0 Z " fill="#FA4F5F" transform="translate(56,35)"/>
<path d="M0 0 C0.33 1.32 0.66 2.64 1 4 C0.01 4.495 0.01 4.495 -1 5 C-1.33 5.99 -1.66 6.98 -2 8 C-2.66 8 -3.32 8 -4 8 C-4.0825 8.66 -4.165 9.32 -4.25 10 C-5.69781616 15.79126463 -8.26424137 21.2113931 -13 25 C-13.66 25 -14.32 25 -15 25 C-15 25.66 -15 26.32 -15 27 C-15.66 27 -16.32 27 -17 27 C-15.57597448 23.03152278 -13.6793553 19.7953578 -11.3125 16.3125 C-10.60738281 15.27222656 -9.90226562 14.23195312 -9.17578125 13.16015625 C-6.14289989 8.75512748 -3.0902548 4.36498491 0 0 Z " fill="#BA1422" transform="translate(101,207)"/>
<path d="M0 0 C0.99 0.33 1.98 0.66 3 1 C2.33355469 1.77601563 1.66710937 2.55203125 0.98046875 3.3515625 C-5.89979296 11.4022364 -12.51253815 19.63029583 -19 28 C-19.33 27.01 -19.66 26.02 -20 25 C-18.63671875 22.73828125 -18.63671875 22.73828125 -16.6875 20.3125 C-16.05199219 19.50425781 -15.41648438 18.69601563 -14.76171875 17.86328125 C-14.18035156 17.24839844 -13.59898437 16.63351563 -13 16 C-12.34 16 -11.68 16 -11 16 C-10.67 14.35 -10.34 12.7 -10 11 C-9.01 10.67 -8.02 10.34 -7 10 C-7 9.34 -7 8.68 -7 8 C-6.34 8 -5.68 8 -5 8 C-4.731875 7.195625 -4.46375 6.39125 -4.1875 5.5625 C-3.795625 4.716875 -3.40375 3.87125 -3 3 C-2.01 2.67 -1.02 2.34 0 2 C0 1.34 0 0.68 0 0 Z " fill="#92114B" transform="translate(245,151)"/>
<path d="M0 0 C0.66 0.33 1.32 0.66 2 1 C1.0234375 4.90625 0.046875 8.8125 -0.9296875 12.71875 C-1.1054834 13.42580078 -1.2812793 14.13285156 -1.46240234 14.86132812 C-1.81996108 16.28376886 -2.18484535 17.70438876 -2.55712891 19.12304688 C-3.54428809 22.92078031 -4.29914049 26.58968588 -4.625 30.5 C-4.69976562 31.3559375 -4.77453125 32.211875 -4.8515625 33.09375 C-4.90054688 33.7228125 -4.94953125 34.351875 -5 35 C-5.33 35 -5.66 35 -6 35 C-6.55900851 15.80737452 -6.55900851 15.80737452 -3 8 C-2.42980055 6.48203661 -1.86706865 4.96124338 -1.3125 3.4375 C-0.6628125 1.7359375 -0.6628125 1.7359375 0 0 Z " fill="#810F31" transform="translate(122,241)"/>
<path d="M0 0 C2.15647531 2.73244284 3.82172862 5.42521409 5.33984375 8.5546875 C5.76330078 9.41707031 6.18675781 10.27945313 6.62304688 11.16796875 C7.49553393 12.96479946 8.36793057 14.76167407 9.24023438 16.55859375 C11.5601216 21.28285575 13.94807699 25.70889711 17 30 C16.67 30.66 16.34 31.32 16 32 C15.67 31.01 15.34 30.02 15 29 C14.34 29 13.68 29 13 29 C11.0027204 25.48915345 9.03055106 21.96480149 7.0625 18.4375 C6.49853516 17.44685547 5.93457031 16.45621094 5.35351562 15.43554688 C2.46285929 10.22544175 0.26079332 5.9982463 0 0 Z " fill="#E38EAD" transform="translate(145,75)"/>
<path d="M0 0 C8.84287798 6.96141458 15.39715868 15.96317012 22 25 C21.34 25.66 20.68 26.32 20 27 C20 26.34 20 25.68 20 25 C19.34 25 18.68 25 18 25 C16.76844632 23.46659493 15.61615395 21.86933811 14.5 20.25 C10.58595983 14.70271144 6.34170963 9.57044383 1.90625 4.43359375 C0 2 0 2 0 0 Z " fill="#CB1B29" transform="translate(57,36)"/>
<path d="M0 0 C0.66 0.33 1.32 0.66 2 1 C1.30386362 8.07738654 -0.31408861 11.48716307 -5 17 C-6.31636556 18.0222326 -7.64722808 19.02645703 -9 20 C-7.48267165 13.50476986 -5.52441052 8.71998135 -1.20703125 3.59375 C0.20124828 2.06748091 0.20124828 2.06748091 0 0 Z " fill="#F445A2" transform="translate(309,32)"/>
<path d="M0 0 C0.99 0 1.98 0 3 0 C3 1.32 3 2.64 3 4 C3.99 4.33 4.98 4.66 6 5 C6 5.99 6 6.98 6 8 C6.598125 8.226875 7.19625 8.45375 7.8125 8.6875 C10.56351888 10.33811133 11.52484637 12.1972081 13 15 C12.34 15 11.68 15 11 15 C11.33 16.65 11.66 18.3 12 20 C10.5 18.6875 10.5 18.6875 9 17 C9 16.01 9 15.02 9 14 C8.34 14 7.68 14 7 14 C4.66666667 9.33333333 2.33333333 4.66666667 0 0 Z " fill="#BD133F" transform="translate(208,236)"/>
<path d="M0 0 C0.99 0.33 1.98 0.66 3 1 C-1.71862182 8.2433909 -6.56488043 15.27403953 -12 22 C-12.99 21.34 -13.98 20.68 -15 20 C-13.68 19.67 -12.36 19.34 -11 19 C-11 18.01 -11 17.02 -11 16 C-10.34 16 -9.68 16 -9 16 C-9 15.01 -9 14.02 -9 13 C-8.34 13 -7.68 13 -7 13 C-6.896875 12.360625 -6.79375 11.72125 -6.6875 11.0625 C-6.3471875 10.0415625 -6.3471875 10.0415625 -6 9 C-5.01 8.67 -4.02 8.34 -3 8 C-2.87625 7.236875 -2.7525 6.47375 -2.625 5.6875 C-2 3 -2 3 0 0 Z " fill="#A10F4F" transform="translate(261,128)"/>
<path d="M0 0 C4.6069317 1.36962834 5.61717687 2.96753009 8 7 C9.68089279 8.55902807 11.44006185 9.9906822 13.21484375 11.44140625 C15.82356269 13.71904051 17.86332816 16.28059947 20 19 C19.67 19.66 19.34 20.32 19 21 C16.20012585 18.25825163 13.41159698 15.50523657 10.625 12.75 C9.8309375 11.97269531 9.036875 11.19539062 8.21875 10.39453125 C7.07792969 9.26337891 7.07792969 9.26337891 5.9140625 8.109375 C5.2123291 7.41811523 4.5105957 6.72685547 3.78759766 6.01464844 C2.07277611 4.08201973 1.02215625 2.35882211 0 0 Z " fill="#8A0025" transform="translate(197,185)"/>
<path d="M0 0 C1.70840281 1.63412443 2.93453047 2.86906094 4 5 C4.66 4.67 5.32 4.34 6 4 C6.061875 4.556875 6.12375 5.11375 6.1875 5.6875 C7.34447074 8.98041671 9.4653602 10.64219554 12 13 C13.36984198 14.29579647 14.7151049 15.61992749 16 17 C16 17.66 16 18.32 16 19 C12.02884831 17.42443866 9.76046833 14.83406651 6.9375 11.6875 C6.08027344 10.74261719 5.22304687 9.79773437 4.33984375 8.82421875 C2.25489608 6.30766255 0.58346972 3.8502455 -1 1 C-0.67 0.67 -0.34 0.34 0 0 Z " fill="#F5483D" transform="translate(72,50)"/>
<path d="M0 0 C1.98 0.99 1.98 0.99 4 2 C4 2.66 4 3.32 4 4 C4.66 4 5.32 4 6 4 C6 4.66 6 5.32 6 6 C6.66 6 7.32 6 8 6 C8.28875 6.639375 8.5775 7.27875 8.875 7.9375 C9.82823451 10.15206079 9.82823451 10.15206079 12 11 C12 12.98 12 14.96 12 17 C8.8667076 14.02196083 6.29239128 10.86843394 3.75 7.375 C2.69039063 5.93253906 2.69039063 5.93253906 1.609375 4.4609375 C0 2 0 2 0 0 Z " fill="#B60C27" transform="translate(123,120)"/>
<path d="M0 0 C3.56914071 3.56914071 2.74580274 9.14545224 3 14 C3.04253906 14.75152344 3.08507812 15.50304688 3.12890625 16.27734375 C3.1875 18.125 3.1875 18.125 3 21 C2.34 21.66 1.68 22.32 1 23 C0.02840067 15.31395526 -0.10920422 7.74136601 0 0 Z " fill="#F70176" transform="translate(243,39)"/>
<path d="M0 0 C3.2559888 0.59385959 6.11804295 1.34440765 9 3 C10.65559235 5.88195705 11.40614041 8.7440112 12 12 C7.47384007 8.32167983 3.60575001 4.58913637 0 0 Z " fill="#AC0627" transform="translate(267,257)"/>
<path d="M0 0 C4.92908146 3.87792288 8.5423711 7.76116833 12 13 C11.01 13.33 10.02 13.66 9 14 C7.4911599 12.23669281 5.9931702 10.46409603 4.5 8.6875 C3.6646875 7.70136719 2.829375 6.71523437 1.96875 5.69921875 C0 3 0 3 0 0 Z " fill="#AF121A" transform="translate(78,61)"/>
<path d="M0 0 C1.62463842 -0.05395478 3.24978541 -0.09277195 4.875 -0.125 C5.77992187 -0.14820312 6.68484375 -0.17140625 7.6171875 -0.1953125 C10 0 10 0 12 2 C9.69 2.33 7.38 2.66 5 3 C5 3.66 5 4.32 5 5 C3.0625 5.5625 3.0625 5.5625 1 6 C0 5 0 5 -0.0625 2.4375 C-0.041875 1.633125 -0.02125 0.82875 0 0 Z " fill="#F97372" transform="translate(54,30)"/>
<path d="M0 0 C0.66 0.33 1.32 0.66 2 1 C2.6328125 3.06640625 2.6328125 3.06640625 3.125 5.5625 C3.29257813 6.38878906 3.46015625 7.21507812 3.6328125 8.06640625 C3.75398438 8.70449219 3.87515625 9.34257812 4 10 C-0.1795645 12.78637633 -2.14668677 11.79562512 -7 11 C-7 10.67 -7 10.34 -7 10 C-4.69 10 -2.38 10 0 10 C0 6.7 0 3.4 0 0 Z " fill="#70152B" transform="translate(116,303)"/>
<path d="M0 0 C-1.72497364 2.29996485 -3.04635934 3.81771456 -5.94140625 4.37109375 C-11.38106379 4.5413961 -11.38106379 4.5413961 -13.74609375 2.47265625 C-14.15988281 1.98667969 -14.57367188 1.50070313 -15 1 C-13.43784452 0.83013455 -11.8752548 0.66426036 -10.3125 0.5 C-9.44238281 0.4071875 -8.57226562 0.314375 -7.67578125 0.21875 C-5.10276661 0.00840136 -2.58015636 -0.03719144 0 0 Z " fill="#FB439C" transform="translate(308,31)"/>
<path d="M0 0 C2 2 2 2 2 5 C2.66 5 3.32 5 4 5 C4 5.66 4 6.32 4 7 C4.99 7 5.98 7 7 7 C7 7.66 7 8.32 7 9 C8.32 9.33 9.64 9.66 11 10 C8.03 10 5.06 10 2 10 C0.0044484 6.00889681 -0.19546065 4.30013434 0 0 Z " fill="#A90A3D" transform="translate(237,304)"/>
<path d="M0 0 C0.33 0.99 0.66 1.98 1 3 C0.01 3.495 0.01 3.495 -1 4 C-1.268125 4.7425 -1.53625 5.485 -1.8125 6.25 C-3.26830812 9.62134511 -5.32061465 11.53214507 -8 14 C-8.33 13.01 -8.66 12.02 -9 11 C-8.34 11 -7.68 11 -7 11 C-7 10.01 -7 9.02 -7 8 C-6.01 8 -5.02 8 -4 8 C-3.8453125 6.576875 -3.8453125 6.576875 -3.6875 5.125 C-3 2 -3 2 0 0 Z " fill="#F7239F" transform="translate(293,55)"/>
<path d="M0 0 C3.21392618 3.01914277 6.08971785 6.20340089 8.875 9.625 C9.49117187 10.38039062 10.10734375 11.13578125 10.7421875 11.9140625 C11.15726563 12.60242188 11.57234375 13.29078125 12 14 C11.67 14.99 11.34 15.98 11 17 C9.5345138 15.10934188 8.07765297 13.21298003 6.625 11.3125 C6.2125 10.78205078 5.8 10.25160156 5.375 9.70507812 C3.00906418 6.59501734 1.25144944 3.70621566 0 0 Z " fill="#E48AB6" transform="translate(172,122)"/>
<path d="M0 0 C0.33 0.99 0.66 1.98 1 3 C-0.14453125 5.04296875 -0.14453125 5.04296875 -1.8125 7.1875 C-2.62654297 8.26064453 -2.62654297 8.26064453 -3.45703125 9.35546875 C-3.96621094 9.89816406 -4.47539063 10.44085938 -5 11 C-5.66 11 -6.32 11 -7 11 C-6.60246179 9.53633658 -6.18118616 8.0791065 -5.75 6.625 C-5.51796875 5.81289063 -5.2859375 5.00078125 -5.046875 4.1640625 C-3.7785108 1.54214546 -2.67576692 1.00617682 0 0 Z " fill="#C9131E" transform="translate(60,286)"/>
<path d="M0 0 C0.33 0.66 0.66 1.32 1 2 C-0.6974182 6.7349034 -2.64883798 10.18660874 -6 14 C-7.06544301 10.80367098 -7.19353531 10.02974348 -6 7 C-4.70896357 5.6256709 -3.3743291 4.29103643 -2 3 C-1.34 2.01 -0.68 1.02 0 0 Z " fill="#840006" transform="translate(59,290)"/>
<path d="M0 0 C1.63996535 5.36502951 -0.28832845 9.49454095 -2.625 14.4375 C-3.07875 15.283125 -3.5325 16.12875 -4 17 C-4.66 17 -5.32 17 -6 17 C-4.13236819 11.27789404 -2.14710968 5.62338249 0 0 Z " fill="#E42972" transform="translate(235,102)"/>
<path d="M0 0 C1.61949011 2.57213134 2.04408751 3.67669159 1.625 6.75 C1.41875 7.4925 1.2125 8.235 1 9 C0.01 9 -0.98 9 -2 9 C-2.33 6.69 -2.66 4.38 -3 2 C-2.01 1.34 -1.02 0.68 0 0 Z " fill="#720910" transform="translate(51,305)"/>
<path d="M0 0 C0.66 0.33 1.32 0.66 2 1 C1.01 2.175625 1.01 2.175625 0 3.375 C-2.20201441 5.71512812 -2.20201441 5.71512812 -2 8 C-2.66 8 -3.32 8 -4 8 C-4.33 8.66 -4.66 9.32 -5 10 C-5.66 9.01 -6.32 8.02 -7 7 C-5.55609075 3.19333016 -3.65047197 1.73397418 0 0 Z " fill="#B60017" transform="translate(148,195)"/>
<path d="M0 0 C0.99 0.33 1.98 0.66 3 1 C1.90536178 2.17561146 0.79892814 3.3402489 -0.3125 4.5 C-0.92738281 5.1496875 -1.54226562 5.799375 -2.17578125 6.46875 C-4 8 -4 8 -7 8 C-5.51218185 4.21282653 -3.38011591 2.22592999 0 0 Z " fill="#630007" transform="translate(174,175)"/>
<path d="M0 0 C3.71421404 4.59855071 6.53603697 8.92491435 6 15 C2.28578596 10.40144929 -0.53603697 6.07508565 0 0 Z " fill="#E786A6" transform="translate(145,75)"/>
<path d="M0 0 C3.26008643 3.16952847 6.22237877 6.39937989 9 10 C8.01 10.33 7.02 10.66 6 11 C2.1334716 7.777893 1.11940982 4.85077588 0 0 Z " fill="#A81334" transform="translate(277,263)"/>
<path d="M0 0 C0.6875 1.6875 0.6875 1.6875 1 4 C-0.1875 6.75 -0.1875 6.75 -2 9 C-3.32 9 -4.64 9 -6 9 C-4.68775452 5.06326356 -3.08089673 2.77280706 0 0 Z " fill="#A00744" transform="translate(280,98)"/>
<path d="M0 0 C0.66 0 1.32 0 2 0 C0.49087042 4.98012761 -2.55661849 8.24259942 -6 12 C-6.33 11.01 -6.66 10.02 -7 9 C-5.63671875 6.73828125 -5.63671875 6.73828125 -3.6875 4.3125 C-3.05199219 3.50425781 -2.41648438 2.69601563 -1.76171875 1.86328125 C-1.18035156 1.24839844 -0.59898437 0.63351563 0 0 Z " fill="#881045" transform="translate(232,167)"/>
<path d="M0 0 C2.475 0.495 2.475 0.495 5 1 C5.103125 1.598125 5.20625 2.19625 5.3125 2.8125 C6.08876455 5.28243264 7.07088921 6.32251235 9 8 C8.67 8.99 8.34 9.98 8 11 C6.66375099 9.35653302 5.33107149 7.71016314 4 6.0625 C3.2575 5.14597656 2.515 4.22945313 1.75 3.28515625 C0 1 0 1 0 0 Z " fill="#B30B20" transform="translate(112,106)"/>
<path d="M0 0 C1.32 0.33 2.64 0.66 4 1 C4 1.99 4 2.98 4 4 C2.68 4 1.36 4 0 4 C-2.75041666 6.41666771 -2.75041666 6.41666771 -5 9 C-5.66 8.67 -6.32 8.34 -7 8 C-4.69 5.36 -2.38 2.72 0 0 Z " fill="#DBBEC7" transform="translate(164,183)"/>
<path d="M0 0 C1 2 1 2 0.3984375 3.91015625 C-2.39218033 9.77897467 -2.39218033 9.77897467 -5.75 11 C-6.4925 11 -7.235 11 -8 11 C-5.71461395 6.91036181 -3.04293074 3.53637896 0 0 Z " fill="#C2162A" transform="translate(128,172)"/>
<path d="M0 0 C2.125 0.375 2.125 0.375 4 1 C2 4 2 4 -1 5 C-1.33 5.99 -1.66 6.98 -2 8 C-4.0625 8.6875 -4.0625 8.6875 -6 9 C-6 8.34 -6 7.68 -6 7 C-5.34 7 -4.68 7 -4 7 C-3.71125 6.21625 -3.4225 5.4325 -3.125 4.625 C-2 2 -2 2 0 0 Z " fill="#F1006E" transform="translate(253,94)"/>
<path d="M0 0 C2.0625 1.5 2.0625 1.5 4 4 C4.05928384 6.82406647 3.55954815 9.20225927 3 12 C0.60926555 8.17482487 0.44033448 4.40334476 0 0 Z " fill="#B42257" transform="translate(230,279)"/>
<path d="M0 0 C0.66 0.33 1.32 0.66 2 1 C1.25 8.625 1.25 8.625 -1 12 C-2.36884358 7.48281619 -1.47075246 4.41225737 0 0 Z " fill="#E44192" transform="translate(309,32)"/>
<path d="M0 0 C1.32 0.33 2.64 0.66 4 1 C4 1.66 4 2.32 4 3 C4.66 3 5.32 3 6 3 C6.33 4.32 6.66 5.64 7 7 C5.02 6.34 3.04 5.68 1 5 C0.67 3.35 0.34 1.7 0 0 Z " fill="#CB002E" transform="translate(299,294)"/>
<path d="M0 0 C0.66 0 1.32 0 2 0 C2.33 0.99 2.66 1.98 3 3 C0.60490662 5.89932357 -1.31245243 6.50168276 -5 7 C-4.21654285 5.82780457 -3.42297164 4.66236332 -2.625 3.5 C-2.18414062 2.8503125 -1.74328125 2.200625 -1.2890625 1.53125 C-0.65097656 0.77328125 -0.65097656 0.77328125 0 0 Z " fill="#D21851" transform="translate(217,134)"/>
<path d="M0 0 C1.13643966 3.40931897 0.86747764 4.00335456 -0.4375 7.1875 C-0.86869141 8.26064453 -0.86869141 8.26064453 -1.30859375 9.35546875 C-1.53675781 9.89816406 -1.76492188 10.44085938 -2 11 C-2.33 11 -2.66 11 -3 11 C-3.36923077 4.6 -3.36923077 4.6 -1.5 1.5625 C-1.005 1.046875 -0.51 0.53125 0 0 Z " fill="#B4255B" transform="translate(307,43)"/>
<path d="M0 0 C2.96909598 3.27301919 3.34354794 5.38065762 3.1875 9.75 C3.16042969 10.73484375 3.13335937 11.7196875 3.10546875 12.734375 C3.07066406 13.48203125 3.03585938 14.2296875 3 15 C2.67 15 2.34 15 2 15 C1.66048381 13.43883181 1.32867456 11.87598662 1 10.3125 C0.814375 9.44238281 0.62875 8.57226562 0.4375 7.67578125 C0.01027953 5.06287036 -0.07616201 2.64186962 0 0 Z " fill="#F01B7C" transform="translate(240,33)"/>
<path d="M0 0 C3.4375 1.1875 3.4375 1.1875 7 3 C7.9375 5.6875 7.9375 5.6875 8 8 C5.5 6.625 5.5 6.625 3 5 C3 4.34 3 3.68 3 3 C2.01 2.67 1.02 2.34 0 2 C0 1.34 0 0.68 0 0 Z " fill="#B70427" transform="translate(281,272)"/>
<path d="M0 0 C0.66 0.66 1.32 1.32 2 2 C0.02 4.31 -1.96 6.62 -4 9 C-4.66 8.67 -5.32 8.34 -6 8 C-6 7.34 -6 6.68 -6 6 C-5.34 6 -4.68 6 -4 6 C-4 5.34 -4 4.68 -4 4 C-2.70766393 2.62689293 -1.37562854 1.28965176 0 0 Z " fill="#C2000B" transform="translate(90,228)"/>
<path d="M0 0 C0.66 0.33 1.32 0.66 2 1 C0.02 3.31 -1.96 5.62 -4 8 C-4.33 6.68 -4.66 5.36 -5 4 C-3 1 -3 1 0 0 Z " fill="#C30614" transform="translate(122,182)"/>
<path d="M0 0 C0.33 0.99 0.66 1.98 1 3 C-0.9375 5.6875 -0.9375 5.6875 -3 8 C-3.99 7.67 -4.98 7.34 -6 7 C-4.02 4.69 -2.04 2.38 0 0 Z " fill="#BF1729" transform="translate(135,164)"/>
<path d="M0 0 C0.99 0 1.98 0 3 0 C3 0.66 3 1.32 3 2 C3.969375 2.268125 4.93875 2.53625 5.9375 2.8125 C7.4534375 3.4003125 7.4534375 3.4003125 9 4 C9.33 4.99 9.66 5.98 10 7 C4.25 5.125 4.25 5.125 2 4 C2 3.34 2 2.68 2 2 C1.34 2 0.68 2 0 2 C0 1.34 0 0.68 0 0 Z " fill="#FB3F58" transform="translate(68,41)"/>
<path d="M0 0 C2.96404505 2.80804268 5.44499019 5.18315774 7 9 C6.34 9 5.68 9 5 9 C5 8.34 5 7.68 5 7 C3.68 6.67 2.36 6.34 1 6 C0.67 4.02 0.34 2.04 0 0 Z " fill="#B91942" transform="translate(298,288)"/>
<path d="M0 0 C1.953125 0.7109375 1.953125 0.7109375 4 2 C4.609375 4.1640625 4.609375 4.1640625 4.75 6.625 C4.80671875 7.44226563 4.8634375 8.25953125 4.921875 9.1015625 C4.94765625 9.72804688 4.9734375 10.35453125 5 11 C0 3.5 0 3.5 0 0 Z " fill="#B00F45" transform="translate(225,268)"/>
<path d="M0 0 C0.99 0.33 1.98 0.66 3 1 C3 1.66 3 2.32 3 3 C3.639375 3.2475 4.27875 3.495 4.9375 3.75 C7 5 7 5 7.62890625 7.078125 C7.75136719 7.71234375 7.87382812 8.3465625 8 9 C6.84775972 8.07038578 5.70340824 7.1309875 4.5625 6.1875 C3.60537109 5.40439453 3.60537109 5.40439453 2.62890625 4.60546875 C1 3 1 3 0 0 Z " fill="#9A0027" transform="translate(220,209)"/>
<path d="M0 0 C0.66 0 1.32 0 2 0 C2 0.66 2 1.32 2 2 C3.32 2.33 4.64 2.66 6 3 C6.33 4.98 6.66 6.96 7 9 C4.03595495 6.19195732 1.55500981 3.81684226 0 0 Z " fill="#CB143F" transform="translate(190,211)"/>
<path d="M0 0 C0.66 0 1.32 0 2 0 C2 0.66 2 1.32 2 2 C1.34 2 0.68 2 0 2 C0 2.99 0 3.98 0 5 C-2.31 5.66 -4.62 6.32 -7 7 C-4.66666667 4.66666667 -2.33333333 2.33333333 0 0 Z " fill="#AC0048" transform="translate(250,142)"/>
<path d="M0 0 C0.66 0 1.32 0 2 0 C0.55746343 3.36591866 -1.33264727 5.51047079 -4 8 C-4.99 7.67 -5.98 7.34 -7 7 C-5.47005208 5.76302083 -3.94010417 4.52604167 -2.41015625 3.2890625 C-0.86733563 2.0333609 -0.86733563 2.0333609 0 0 Z " fill="#E30059" transform="translate(245,103)"/>
<path d="M0 0 C3 3.75 3 3.75 3 6 C2.01 6.495 2.01 6.495 1 7 C-0.0409066 8.64142963 -1.04504326 10.30712215 -2 12 C-3.40907283 9.18185434 -2.50872691 7.82722796 -1.5625 4.875 C-1.27503906 3.96492188 -0.98757812 3.05484375 -0.69140625 2.1171875 C-0.46324219 1.41851562 -0.23507813 0.71984375 0 0 Z " fill="#EB115E" transform="translate(239,90)"/>
<path d="M0 0 C0.82810826 3.31243305 1.09278428 5.65976579 1 9 C-0.32 9.33 -1.64 9.66 -3 10 C-2.01 6.7 -1.02 3.4 0 0 Z " fill="#A92532" transform="translate(52,297)"/>
<path d="M0 0 C1.875 0.1875 1.875 0.1875 4 1 C5.25 3.5625 5.25 3.5625 6 6 C5.01 6 4.02 6 3 6 C0 2.66666667 0 2.66666667 0 0 Z " fill="#C4153F" transform="translate(202,227)"/>
<path d="M0 0 C0.66 0.33 1.32 0.66 2 1 C0.02 3.31 -1.96 5.62 -4 8 C-4.33 7.34 -4.66 6.68 -5 6 C-4.67 5.01 -4.34 4.02 -4 3 C-3.34 3 -2.68 3 -2 3 C-2 2.34 -2 1.68 -2 1 C-1.34 0.67 -0.68 0.34 0 0 Z " fill="#C8000C" transform="translate(111,197)"/>
<path d="M0 0 C0.33 0.66 0.66 1.32 1 2 C0.01 1.67 -0.98 1.34 -2 1 C-1.34 0.67 -0.68 0.34 0 0 Z M-3 2 C-2.67 2.99 -2.34 3.98 -2 5 C-2.66 5 -3.32 5 -4 5 C-4 6.32 -4 7.64 -4 9 C-4.99 9 -5.98 9 -7 9 C-7 8.01 -7 7.02 -7 6 C-6.34 6 -5.68 6 -5 6 C-4.34 4.68 -3.68 3.36 -3 2 Z " fill="#FB119E" transform="translate(288,61)"/>
<path d="M0 0 C2.95409701 1.37154504 5.44008376 2.98863724 8 5 C7.67 6.32 7.34 7.64 7 9 C5.83037314 7.69013727 4.66437056 6.3770374 3.5 5.0625 C2.8503125 4.33160156 2.200625 3.60070313 1.53125 2.84765625 C0 1 0 1 0 0 Z " fill="#F96A4F" transform="translate(59,37)"/>
<path d="M0 0 C1.17539996 0.92652701 2.34010577 1.86663387 3.5 2.8125 C4.1496875 3.33457031 4.799375 3.85664062 5.46875 4.39453125 C7 6 7 6 7 9 C3.99234114 6.15063897 1.72154788 3.76488042 0 0 Z " fill="#D52939" transform="translate(57,36)"/>
<path d="M0 0 C0.66 0.33 1.32 0.66 2 1 C1.01 3.97 0.02 6.94 -1 10 C-1.33 10 -1.66 10 -2 10 C-2.1953125 3.9453125 -2.1953125 3.9453125 -2 2 C-1.34 1.34 -0.68 0.68 0 0 Z " fill="#851131" transform="translate(126,232)"/>
<path d="M0 0 C-1.36983503 3.16115776 -1.9890638 3.9927092 -5 6 C-5.66 5.34 -6.32 4.68 -7 4 C-2.25 0 -2.25 0 0 0 Z " fill="#73000A" transform="translate(182,170)"/>
<path d="M0 0 C0.99 0 1.98 0 3 0 C4.75 2.3125 4.75 2.3125 6 5 C5.67 5.99 5.34 6.98 5 8 C4.16382818 6.8562364 3.33113541 5.70992861 2.5 4.5625 C2.0359375 3.92441406 1.571875 3.28632813 1.09375 2.62890625 C0 1 0 1 0 0 Z " fill="#B01630" transform="translate(135,137)"/>
<path d="M0 0 C1.98 1.65 3.96 3.3 6 5 C5.01 6.485 5.01 6.485 4 8 C4 7.34 4 6.68 4 6 C3.34 6 2.68 6 2 6 C0 3 0 3 0 0 Z " fill="#BD1A26" transform="translate(73,55)"/>
<path d="M0 0 C0.99 0.33 1.98 0.66 3 1 C2.34 2.32 1.68 3.64 1 5 C0.01 5 -0.98 5 -2 5 C-2 4.01 -2 3.02 -2 2 C-1.34 2 -0.68 2 0 2 C0 1.34 0 0.68 0 0 Z " fill="#C70009" transform="translate(62,281)"/>
<path d="M0 0 C0.66 1.32 1.32 2.64 2 4 C0.625 6 0.625 6 -1 8 C-1.66 8 -2.32 8 -3 8 C-1.125 2.25 -1.125 2.25 0 0 Z " fill="#B21424" transform="translate(83,234)"/>
<path d="M0 0 C0.66 0.33 1.32 0.66 2 1 C2.40729228 3.32156597 2.74438677 5.6568787 3 8 C0.47411298 5.63707344 -0.88820837 4.33537489 -2 1 C-1.34 0.67 -0.68 0.34 0 0 Z " fill="#C70F3C" transform="translate(199,219)"/>
<path d="M0 0 C0.33 0.66 0.66 1.32 1 2 C-0.65 3.65 -2.3 5.3 -4 7 C-4.99 6.67 -5.98 6.34 -7 6 C-4.69 4.02 -2.38 2.04 0 0 Z " fill="#CB2C68" transform="translate(205,148)"/>
<path d="M0 0 C0.33 0 0.66 0 1 0 C1.33 2.97 1.66 5.94 2 9 C1.01 9.33 0.02 9.66 -1 10 C-0.67 6.7 -0.34 3.4 0 0 Z " fill="#EA1D6D" transform="translate(242,73)"/>
</svg>
